# Created by Open3D 
# object name: cow
# number of vertices: 251
# number of triangles: 500
v 2.28283 -0.854234 -0.944957
vn 0.605977 -0.371412 -0.703452
v 2.54571 -1.33116 -0.575859
vn 0.406336 -0.428866 -0.806824
v 3.03689 -0.761182 -0.247792
vn 0.733463 -0.37229 -0.568711
v 2.72616 -1.565 -0.410559
vn 0.449266 -0.79372 -0.410083
v 2.63398 -1.56732 0.421243
vn 0.477262 -0.601599 0.640546
v 2.01275 -1.58122 0.603551
vn 0.355171 -0.925264 0.133194
v 2.07572 -1.6314 0.863359
vn 0.989478 -0.143613 0.0175835
v 1.83151 -2.38655 0.644707
vn 0.216839 -0.109669 -0.970028
v 1.85924 -2.68832 0.926287
vn 0.298016 0.149195 0.942829
v 2.02273 -2.95269 0.723094
vn 0.562264 0.248916 -0.788606
v 1.98715 -3.05764 1.02238
vn 0.0700261 0.416114 0.906612
v 2.40493 -3.51042 1.21755
vn 0.623829 -0.0291393 0.781017
v 1.94641 -3.52542 1.17738
vn -0.696994 -0.424815 0.577695
v 2.31149 -3.56217 0.756454
vn 0.590499 -0.541303 -0.598584
v 1.92224 -3.5064 0.730193
vn -0.768776 -0.457367 -0.446989
v 1.73751 -3.11707 0.822271
vn -0.940198 -0.337865 -0.0432976
v 1.98489 -1.3878 1.11246
vn 0.418685 -0.178106 0.890495
v 2.05345 -1.57031 -0.682485
vn 0.930359 -0.365585 0.0279122
v 1.27043 -1.5401 0.484625
vn -0.111475 -0.97487 0.192876
v 1.42857 -1.59835 0.734225
vn -0.813919 -0.464808 -0.348554
v 1.28865 -1.11432 0.921357
vn -0.405703 -0.452209 0.7943
v 0.94698 -1.13532 0.900337
vn 0.305842 -0.60939 0.731508
v -0.379011 -1.71911 0.844154
vn 0.162997 -0.796247 0.5826
v -0.380615 -1.43567 1.26466
vn 0.150245 -0.799711 0.581282
v -1.36008 -1.5095 0.793585
vn -0.0579862 -0.675412 0.735158
v -1.13087 -1.2719 1.39918
vn -0.401915 -0.716311 0.570406
v -1.97165 -0.907478 0.968056
vn -0.0982649 -0.588739 0.802328
v -2.54388 -1.45779 0.959925
vn 0.106186 -0.454693 0.884296
v -2.93291 -1.86474 1.03198
vn 0.580409 -0.376815 0.721897
v -2.29193 -0.499207 1.37067
vn 0.169752 -0.318347 0.932652
v -2.27621 0.00367893 1.4135
vn -0.0654184 0.164025 0.984285
v -1.92994 0.506897 1.19739
vn -0.103837 0.226131 0.968547
v -2.73256 1.02396 1.21846
vn -0.192849 0.229256 0.954071
v -1.76604 1.36743 1.09611
vn 0.070557 0.395679 0.915675
v -3.21156 1.56236 0.867008
vn -0.38395 0.414795 0.824941
v -1.45086 1.59223 0.863544
vn 0.20173 0.759645 0.618259
v -3.32034 1.80146 0.524106
vn -0.2646 0.872243 0.411315
v -1.49282 1.80766 0.0196535
vn 0.0907557 0.989929 0.108649
v -3.35208 2.01526 -0.0274524
vn -0.0181643 0.99559 0.0920411
v -3.34499 1.97417 -0.0954104
vn 0.0222896 0.739085 -0.673243
v -3.84794 1.40849 -0.129906
vn -0.343332 0.0185431 -0.939031
v -3.68993 1.36119 0.0557182
vn 0.920423 -0.0842908 0.381728
v -3.56961 -1.30024 -0.0823861
vn 0.910031 -0.0294129 -0.413495
v -3.81661 -0.148844 0.0419904
vn -0.619527 0.0898831 0.779813
v -3.87967 1.58063 0.0880562
vn -0.857296 0.28591 0.428135
v -3.76943 -0.142923 -0.108447
vn -0.17411 0.139124 -0.974849
v -3.88018 -1.41094 -0.308475
vn 0.29751 -0.198124 -0.933935
v -3.91802 -1.84464 -0.016952
vn 0.441234 -0.894022 0.0776996
v -4.23 -1.47993 -0.213751
vn -0.738532 0.095294 -0.667449
v -3.42044 1.85498 0.144441
vn 0.399104 -0.195243 0.895877
v -3.50111 1.69688 -0.0475783
vn 0.744686 -0.471309 -0.472557
v -3.33839 1.80278 -0.510358
vn -0.462111 0.829423 -0.313865
v -1.51689 1.69954 -0.451001
vn 0.106107 0.955663 -0.274682
v 0.499279 1.49915 -0.411349
vn -0.00844908 0.81554 -0.578639
v 0.582482 1.7311 -0.0260812
vn -0.00687655 0.974497 -0.224295
v 1.87487 1.78054 -0.174505
vn -0.0506417 0.982743 -0.17791
v 2.22944 1.74127 0.258331
vn -0.0404759 0.835049 0.548685
v 1.72209 1.28289 0.823375
vn 0.00211919 0.592593 0.805499
v 2.36794 1.36785 0.55339
vn 0.296549 0.494155 0.817233
v 2.08915 0.378249 1.21006
vn 0.0582373 0.279331 0.958427
v 2.61812 0.228815 1.1102
vn 0.66801 0.165518 0.725511
v 2.83687 0.186608 0.707251
vn 0.642686 -0.0428292 0.764931
v 2.73658 -0.607229 0.582683
vn 0.671214 -0.221841 0.70729
v 2.95205 -1.00366 0.306231
vn 0.868018 -0.336984 0.364674
v 2.2708 -0.86707 0.935419
vn 0.712378 -0.355688 0.604982
v 2.54983 -0.417717 1.05188
vn 0.675334 -0.317163 0.665831
v 2.03295 -0.344776 1.27367
vn 0.141568 -0.07857 0.986806
v 0.828346 0.317138 1.21328
vn 0.140041 0.298009 0.944235
v -0.503386 -0.195935 1.70979
vn 0.163932 0.170895 0.971556
v -0.594513 0.353019 1.49537
vn 0.105785 0.49091 0.864764
v -1.03353 1.26322 0.838167
vn 0.181267 0.562898 0.806405
v -1.39987 0.846347 1.24978
vn -0.0459494 0.430321 0.901506
v 0.883615 -0.25973 1.27056
vn 0.267151 -0.119036 0.956274
v -1.87991 -0.27244 1.39092
vn -0.150764 -0.223933 0.962873
v -1.18486 -0.203792 1.65264
vn -0.228879 0.183 0.956099
v -1.19422 -0.890379 1.61519
vn -0.331599 -0.335322 0.881817
v -0.382985 -1.06246 1.5827
vn 0.2229 -0.415794 0.881721
v 1.60245 -0.38822 1.26103
vn -0.181773 -0.245056 0.952316
v 1.47813 -1.25834 1.11392
vn -0.363449 -0.216257 0.906166
v 2.76563 -0.544937 -0.581005
vn 0.680854 -0.244711 -0.690329
v 4.04432 0.612722 0.16915
vn 0.574346 -0.743745 0.342009
v 4.12961 0.655276 -0.249508
vn 0.371882 -0.64775 -0.664924
v 5.05469 0.826597 0.280313
vn 0.153502 -0.971038 0.18309
v 4.73927 1.08128 0.597779
vn 0.265513 -0.232392 0.93568
v 5.3732 1.0299 0.3514
vn 0.253669 -0.349313 0.902016
v 5.75766 1.40118 0.248659
vn 0.315835 0.586966 0.745466
v 5.21429 1.89533 0.124734
vn 0.742439 0.576598 0.341056
v 6.00927 1.35205 0.000182884
vn 0.813027 0.57351 -0.10037
v 5.95222 1.05181 -0.198619
vn 0.68161 -0.368294 -0.632272
v 5.40034 1.02153 -0.358682
vn 0.267 -0.202287 -0.942227
v 5.79341 0.830975 0.0566387
vn 0.486345 -0.86602 0.116094
v 5.82976 1.13153 0.331226
vn 0.509673 -0.0741985 0.857163
v 5.73439 1.37527 -0.271021
vn 0.322873 0.533608 -0.781675
v 5.21937 1.83736 -0.167796
vn 0.662991 0.44454 -0.602351
v 4.93705 2.20232 0.513581
vn 0.693619 0.590645 0.412348
v 4.55455 2.43385 0.309428
vn 0.624291 0.728047 0.28321
v 4.92043 2.0019 0.631123
vn 0.549084 0.0835476 0.831581
v 4.28847 1.9234 0.589508
vn 0.0402839 0.0903039 0.995099
v 2.85296 0.0620358 -0.650971
vn 0.543301 -0.10574 -0.832852
v 2.72035 0.960868 -0.539586
vn 0.412684 0.22791 -0.881901
v 2.38619 1.3741 -0.543358
vn 0.305793 0.499246 -0.810706
v 2.61677 0.224702 -1.11349
vn 0.565587 0.208772 -0.797825
v 2.11105 0.350868 -1.22119
vn 0.0873067 0.298907 -0.95028
v 1.72209 1.28289 -0.823375
vn 0.00211919 0.592593 -0.805499
v 0.79733 1.00727 -0.858141
vn 0.0146963 0.597142 -0.802001
v 3.54024 1.10039 -0.510045
vn -0.0343591 0.0565728 -0.997807
v 2.55575 -0.417696 -1.05351
vn 0.682062 -0.272495 -0.678629
v 2.04037 -0.383679 -1.2651
vn 0.172026 -0.108546 -0.979094
v 2.06677 -1.07998 -1.17684
vn 0.435751 -0.184931 -0.880864
v 1.94343 -1.74685 -1.0245
vn 0.407275 -0.177081 -0.895974
v 1.47894 -1.25111 -1.11861
vn -0.387789 -0.215913 -0.896103
v 1.97072 -2.72155 -0.875675
vn 0.821536 0.121712 -0.557014
v 1.74138 -3.01765 -0.810793
vn -0.927389 -0.232536 0.293047
v 1.78416 -3.0919 -0.988838
vn -0.386071 -0.0760909 -0.919325
v 1.89365 -2.92642 -0.683507
vn -0.158739 -0.082094 0.983902
v 2.05263 -3.53261 -0.644541
vn -0.129389 -0.414067 0.901004
v 2.35899 -3.43483 -0.838996
vn 0.880581 0.262744 0.394388
v 2.34452 -3.44807 -1.2055
vn 0.666123 0.309673 -0.678515
v 2.11198 -3.58752 -1.22358
vn -0.0507816 -0.935664 -0.349219
v 1.47382 -1.5954 -0.689996
vn -0.65224 -0.616827 0.440575
v -0.414271 1.41007 -0.652819
vn 0.12089 0.64398 -0.755431
v -1.88656 -0.971089 -0.964563
vn -0.24339 -0.566535 -0.787274
v -2.56232 -1.45498 -0.961361
vn 0.112204 -0.451563 -0.885156
v -2.18964 -1.85208 -0.568469
vn 0.259662 -0.649737 -0.714435
v -2.83694 -1.83357 -0.675315
vn -0.0676832 -0.971996 -0.225039
v -2.57413 -1.96022 -0.456688
vn 0.0597274 -0.925598 0.373767
v -1.63542 -1.51988 -0.7852
vn 0.0238667 -0.747263 -0.6641
v -0.789703 -1.61888 -0.896657
vn -0.114361 -0.755073 -0.645589
v -1.13087 -1.2719 -1.39918
vn -0.401915 -0.716311 -0.570406
v -0.424288 -1.39314 -1.34404
vn 0.173488 -0.735475 -0.654965
v -0.40634 -1.75485 -0.828214
vn 0.173562 -0.849676 -0.497922
v 0.948908 -1.12944 -0.903127
vn 0.312701 -0.579883 -0.752299
v 0.881831 -1.48218 -0.523781
vn 0.220664 -0.901342 -0.37268
v 1.08642 -1.53581 -0.40627
vn -0.0497385 -0.981923 -0.182628
v 1.28921 -1.11023 -0.92215
vn -0.404415 -0.457577 -0.791879
v -1.19422 -0.890379 -1.61519
vn -0.331599 -0.335322 -0.881817
v -1.86677 -0.126461 -1.41378
vn -0.256245 -0.0262433 -0.966256
v -1.93058 0.504453 -1.19755
vn -0.0996556 0.226611 -0.968874
v -2.7326 1.02467 -1.21819
vn -0.190211 0.222828 -0.956121
v -3.21147 1.56221 -0.867172
vn -0.383177 0.414395 -0.825501
v -3.72501 1.56342 0.387507
vn -0.867313 0.390311 0.30891
v -3.67428 1.20769 0.205168
vn -0.986954 -0.158479 -0.028392
v -3.73571 1.44429 -0.402445
vn -0.987042 0.0633413 -0.147433
v -2.93348 -0.427643 -1.29445
vn -0.43644 0.0287533 -0.899274
v -2.20472 -0.223326 -1.44466
vn -0.0832072 -0.0794699 -0.993358
v -1.45086 1.59223 -0.863544
vn 0.20173 0.759645 -0.618259
v -1.76604 1.36743 -1.09611
vn 0.070557 0.395679 -0.915675
v -1.50832 0.917996 -1.20109
vn 0.104786 0.479452 -0.87129
v -0.587271 0.360483 -1.49052
vn 0.103918 0.494533 -0.862924
v 0.865332 0.309577 -1.21422
vn 0.123097 0.33927 -0.9326
v 1.61975 -0.331886 -1.28191
vn -0.15648 -0.185537 -0.970098
v -1.04572 -0.314389 -1.6905
vn -0.153925 0.166033 -0.974033
v -0.411413 -0.0738247 -1.66136
vn 0.166443 0.221212 -0.960917
v 0.87868 -0.217272 -1.28429
vn 0.255564 -0.0906405 -0.962534
v -0.409813 -0.93136 -1.64983
vn 0.222801 -0.29269 -0.929888
v -2.39832 -0.884587 -1.21641
vn 0.349844 -0.469651 -0.810578
v -3.06106 -2.3397 -0.866167
vn 0.5945 -0.206186 0.777211
v -3.06303 -2.68349 -1.02684
vn 0.380257 0.162651 -0.910467
v -3.22598 -3.12325 -0.8213
vn -0.501397 -0.222136 0.836216
v -3.25035 -3.14121 -1.14153
vn -0.408594 -0.132672 -0.903022
v -3.38495 -2.54304 -0.912626
vn -0.97837 -0.181558 0.0991355
v -3.44138 -1.91514 -0.967272
vn -0.583979 0.0724102 -0.808533
v -2.94166 -1.74101 -1.09656
vn 0.177737 -0.235941 -0.955375
v -2.62961 -3.50005 -1.34689
vn 0.646945 0.314506 -0.694657
v -3.03694 -3.60342 -1.34682
vn -0.559073 -0.607703 -0.564034
v -3.11419 -3.54772 -0.888349
vn -0.702176 -0.548992 0.453384
v -2.83337 -3.63222 -0.82028
vn 0.20251 -0.809713 0.550776
v -2.61412 -3.48535 -0.983124
vn 0.835213 0.252329 0.488621
v -3.39234 -1.5392 -0.649684
vn -0.850924 -0.360264 0.38228
v -2.81037 -1.84445 0.655515
vn -0.141507 -0.94352 0.299575
v -2.53678 -1.89404 -2.84189e-16
vn -0.0721795 -0.997392 0
v -2.57413 -1.96022 0.456688
vn 0.0597274 -0.925598 -0.373767
v -2.18964 -1.85208 0.568469
vn 0.259662 -0.649737 0.714435
v -2.17163 -1.90676 -0.393474
vn -0.16884 -0.983186 -0.0695544
v -2.0537 -2.17714 -0.447317
vn 0.135248 -0.990811 0.000920944
v -1.67901 -1.70289 -0.315638
vn 0.368793 -0.927884 0.054979
v -1.12002 -1.73773 -0.717835
vn -0.207308 -0.835087 -0.509562
v -0.769835 -1.85525 -0.383551
vn -0.0905268 -0.994279 -0.0566939
v -0.0704906 -1.81154 -0.337534
vn 0.217468 -0.972417 -0.084337
v -0.257429 -1.83372 0.451713
vn 0.135375 -0.979277 0.15063
v -1.0186 -1.77829 0.718277
vn -0.215474 -0.944879 0.246526
v -1.64461 -1.6806 0.383985
vn 0.225797 -0.974142 -0.00788993
v -2.17163 -1.90676 0.393474
vn -0.16884 -0.983186 0.0695544
v -2.0537 -2.17714 0.447317
vn 0.135248 -0.990811 -0.000920944
v -2.97001 -1.45894 1.14668
vn -0.341469 -0.0314782 0.939366
v -3.43694 -1.66542 0.883792
vn -0.712971 0.197463 0.672816
v -3.40077 -1.52332 0.649157
vn -0.856817 -0.341709 -0.386134
v -3.67487 -1.05954 0.58842
vn -0.87173 -0.0871977 0.482166
v -3.66907 -1.08501 -0.595792
vn -0.858614 -0.110138 -0.500651
v -3.53577 0.268593 0.324402
vn -0.994556 0.0752242 0.0721101
v -3.52133 0.0233029 -0.535681
vn -0.97392 -0.0498765 -0.221341
v -3.42338 0.118194 -0.933764
vn -0.829384 -0.0887734 -0.551581
v -3.23128 -1.11517 -0.865764
vn -0.746825 0.0608208 -0.662233
v -3.34657 -0.645552 0.77057
vn -0.884761 -0.0914081 0.456992
v -3.58185 0.878493 -0.0332082
vn -0.983048 -0.183182 0.0077908
v -2.9261 -0.424317 1.29969
vn -0.461339 0.0156899 0.887085
v 1.8516 -3.46338 -0.971641
vn -0.873959 -0.47458 -0.104733
v 3.06554 1.86643 -0.211257
vn -0.29225 0.715411 -0.634647
v 3.18606 2.0346 0.060362
vn -0.407129 0.863959 0.296346
v 3.74383 2.08099 0.361645
vn -0.481471 0.280132 0.830489
v 4.11837 1.83547 0.550912
vn -0.146718 -0.727348 0.670402
v 3.98273 2.16555 0.782492
vn -0.909428 0.373987 0.181863
v 4.2771 2.42283 1.0456
vn 0.852299 0.512953 0.102304
v 4.19241 2.04201 0.759003
vn 0.856852 -0.361395 0.367693
v 4.05524 2.27379 1.48759
vn -0.708158 0.00097973 0.706053
v 4.1425 2.35545 0.603385
vn -0.560206 0.470716 0.681613
v 4.07205 2.56472 0.136991
vn -0.495371 0.868518 0.0168704
v 4.15779 2.58466 -0.3273
vn -0.325036 0.935343 -0.13959
v 4.15976 2.32707 -0.641228
vn -0.279919 0.89848 -0.3382
v 4.19676 1.8899 -0.55621
vn -0.0904026 -0.08773 -0.992034
v 4.19257 2.05224 -0.770463
vn 0.778502 -0.435225 -0.452231
v 4.05598 1.99686 -1.01667
vn -0.57 -0.736028 -0.365188
v 4.07758 2.34479 -1.46437
vn 0.203596 0.0209613 -0.97883
v 4.27967 2.42689 -1.02184
vn 0.538644 0.842529 -0.00273994
v 3.80203 2.11676 -0.41336
vn -0.645777 0.10854 -0.755772
v 2.66898 1.67032 -0.307535
vn 0.0120843 0.577676 -0.816177
v 4.13589 1.12475 -0.54522
vn -0.102927 -0.263206 -0.959233
v 4.46804 1.16209 -0.669032
vn 0.0384121 -0.158738 -0.986573
v 4.93666 0.810575 -0.309796
vn 0.185674 -0.814419 -0.54977
v 4.85728 1.96657 -0.61775
vn 0.509099 0.0388212 -0.859832
v 5.00098 2.15694 -0.499776
vn 0.778729 0.510577 -0.364545
v 4.50294 2.36807 -0.410528
vn 0.611936 0.584665 -0.532636
v 4.33209 2.58109 0.479261
vn 0.550208 0.793355 -0.260498
v 4.49984 2.73185 1.00583
vn -0.252228 0.670576 0.697645
v 4.39417 2.46025 0.850655
vn 0.296765 -0.805914 0.512282
v 4.97422 2.68819 0.835958
vn 0.756481 -0.177512 -0.629465
v 4.32434 2.71611 -0.827766
vn -0.322852 0.941027 0.101164
v 4.49725 2.64862 -1.03415
vn -0.157335 0.0196884 -0.987349
v 4.61911 2.52828 -0.879045
vn 0.835705 -0.464717 0.292636
v 3.14437 1.14709 0.462239
vn 0.0207206 0.182517 0.982984
v 4.17597 1.06021 0.543035
vn -0.15392 -0.287267 0.945403
v 3.44908 0.476795 0.453857
vn 0.209988 -0.0924962 0.973319
v 0.524165 1.60566 0.280462
vn -0.0271005 0.850659 0.525019
v 0.263315 1.46798 0.45431
vn 0.0598277 0.770225 0.63496
v 0.806156 0.983353 0.876649
vn 0.0439469 0.588503 0.8073
v 0.852408 -1.46583 0.568662
vn 0.224684 -0.880686 0.417024
v -3.06472 -2.24153 0.830197
vn 0.476485 -0.300612 -0.826193
v -3.04919 -2.71684 1.02024
vn 0.41272 0.156527 0.897308
v -3.05516 -3.08486 0.822603
vn 0.283132 0.154207 -0.946602
v -3.27545 -3.1788 0.891191
vn -0.66315 -0.267777 -0.698948
v -3.01806 -3.63272 0.832285
vn -0.352741 -0.793167 -0.496447
v -2.94097 -3.6086 1.39861
vn -0.225027 -0.316238 0.921605
v -2.61071 -3.51296 1.34351
vn 0.543551 0.464972 0.698823
v -3.25176 -3.11205 1.14413
vn -0.611523 -0.129593 0.780542
v -2.60664 -3.48811 0.983393
vn 0.836468 0.266552 -0.478823
v -3.38392 -2.55192 0.91376
vn -0.981575 -0.173892 -0.0792005
v -3.21342 -0.744987 1.02715
vn -0.847567 -0.056102 0.527715
v -3.49573 0.372276 0.851193
vn -0.848345 -0.0480356 0.52726
v -3.77558 -1.11354 0.160353
vn 0.13936 0.0161306 0.99011
v -4.30782 -1.37207 0.0571616
vn -0.803643 0.287705 0.520945
v -4.4426 -2.00414 0.146511
vn -0.607696 -0.77601 0.168861
f 6//6 7//7 8//8
f 8//8 7//7 9//9
f 8//8 9//9 10//10
f 10//10 9//9 11//11
f 12//12 13//13 14//14
f 14//14 15//15 10//10
f 16//16 15//15 13//13
f 16//16 13//13 11//11
f 17//17 9//9 7//7
f 15//15 14//14 13//13
f 12//12 11//11 13//13
f 1//1 2//2 18//18
f 18//18 2//2 4//4
f 18//18 4//4 19//19
f 19//19 4//4 6//6
f 19//19 6//6 20//20
f 19//19 20//20 21//21
f 19//19 21//21 22//22
f 23//23 22//22 24//24
f 23//23 24//24 25//25
f 25//25 24//24 26//26
f 25//25 26//26 27//27
f 29//29 27//27 30//30
f 31//31 32//32 33//33
f 33//33 34//34 35//35
f 35//35 34//34 36//36
f 35//35 36//36 37//37
f 37//37 36//36 38//38
f 37//37 38//38 39//39
f 39//39 38//38 40//40
f 41//41 42//42 43//43
f 47//47 46//46 43//43
f 47//47 43//43 48//48
f 47//47 49//49 46//46
f 43//43 42//42 44//44
f 43//43 46//46 41//41
f 40//40 41//41 45//45
f 40//40 45//45 39//39
f 39//39 50//50 37//37
f 39//39 45//45 50//50
f 40//40 50//50 51//51
f 51//51 42//42 41//41
f 41//41 40//40 51//51
f 40//40 52//52 50//50
f 50//50 52//52 37//37
f 54//54 38//38 55//55
f 54//54 55//55 56//56
f 57//57 58//58 59//59
f 59//59 58//58 60//60
f 59//59 60//60 61//61
f 3//3 64//64 4//4
f 64//64 5//5 4//4
f 5//5 63//63 65//65
f 65//65 63//63 66//66
f 69//69 68//68 70//70
f 70//70 71//71 72//72
f 34//34 32//32 72//72
f 68//68 69//69 73//73
f 68//68 73//73 60//60
f 60//60 73//73 67//67
f 34//34 33//33 32//32
f 32//32 31//31 74//74
f 75//75 74//74 76//76
f 75//75 76//76 69//69
f 69//69 76//76 77//77
f 77//77 24//24 22//22
f 27//27 28//28 25//25
f 24//24 77//77 26//26
f 77//77 76//76 26//26
f 26//26 76//76 27//27
f 76//76 74//74 27//27
f 31//31 30//30 74//74
f 27//27 74//74 30//30
f 72//72 32//32 75//75
f 72//72 75//75 70//70
f 70//70 75//75 69//69
f 67//67 73//73 78//78
f 66//66 67//67 65//65
f 5//5 65//65 6//6
f 63//63 5//5 64//64
f 17//17 67//67 79//79
f 79//79 67//67 78//78
f 79//79 78//78 21//21
f 73//73 77//77 22//22
f 77//77 73//73 69//69
f 74//74 75//75 32//32
f 22//22 21//21 73//73
f 73//73 21//21 78//78
f 7//7 6//6 65//65
f 7//7 65//65 17//17
f 17//17 65//65 67//67
f 51//51 50//50 42//42
f 42//42 50//50 45//45
f 42//42 45//45 44//44
f 45//45 41//41 44//44
f 44//44 41//41 46//46
f 2//2 3//3 4//4
f 4//4 5//5 6//6
f 1//1 80//80 2//2
f 2//2 80//80 3//3
f 85//85 86//86 87//87
f 92//92 91//91 88//88
f 92//92 88//88 86//86
f 90//90 89//89 91//91
f 94//94 93//93 90//90
f 90//90 93//93 89//89
f 93//93 88//88 89//89
f 95//95 96//96 97//97
f 84//84 85//85 97//97
f 97//97 85//85 87//87
f 97//97 87//87 95//95
f 87//87 96//96 95//95
f 101//101 100//100 102//102
f 101//101 102//102 103//103
f 101//101 103//103 104//104
f 104//104 105//105 54//54
f 99//99 100//100 106//106
f 99//99 106//106 82//82
f 3//3 82//82 81//81
f 3//3 81//81 64//64
f 99//99 82//82 3//3
f 80//80 99//99 3//3
f 83//83 81//81 82//82
f 100//100 99//99 102//102
f 102//102 107//107 108//108
f 108//108 107//107 1//1
f 108//108 1//1 109//109
f 109//109 110//110 111//111
f 115//115 116//116 117//117
f 118//118 117//117 119//119
f 113//113 115//115 120//120
f 113//113 120//120 111//111
f 111//111 110//110 112//112
f 112//112 115//115 117//117
f 117//117 118//118 112//112
f 118//118 114//114 112//112
f 109//109 1//1 18//18
f 110//110 109//109 18//18
f 80//80 107//107 99//99
f 107//107 102//102 99//99
f 1//1 107//107 80//80
f 38//38 54//54 53//53
f 53//53 54//54 121//121
f 121//121 54//54 105//105
f 126//126 125//125 124//124
f 128//128 122//122 129//129
f 128//128 129//129 130//130
f 128//128 130//130 131//131
f 131//131 130//130 132//132
f 133//133 132//132 134//134
f 134//134 135//135 120//120
f 120//120 135//135 111//111
f 129//129 122//122 136//136
f 136//136 122//122 137//137
f 51//51 52//52 141//141
f 51//51 141//141 37//37
f 144//144 140//140 139//139
f 145//145 139//139 138//138
f 145//145 138//138 137//137
f 140//140 143//143 52//52
f 141//141 143//143 142//142
f 141//141 52//52 143//143
f 51//51 37//37 52//52
f 52//52 40//40 53//53
f 52//52 53//53 146//146
f 147//147 146//146 148//148
f 150//150 103//103 151//151
f 151//151 103//103 108//108
f 102//102 108//108 103//103
f 104//104 103//103 150//150
f 104//104 150//150 105//105
f 105//105 150//150 149//149
f 105//105 149//149 121//121
f 121//121 146//146 53//53
f 121//121 148//148 146//146
f 52//52 146//146 140//140
f 140//140 146//146 147//147
f 140//140 147//147 139//139
f 147//147 138//138 139//139
f 138//138 148//148 137//137
f 137//137 148//148 152//152
f 152//152 148//148 149//149
f 152//152 149//149 153//153
f 151//151 154//154 150//150
f 137//137 152//152 136//136
f 152//152 153//153 155//155
f 152//152 155//155 136//136
f 136//136 155//155 130//130
f 136//136 130//130 129//129
f 147//147 148//148 138//138
f 148//148 121//121 149//149
f 154//154 153//153 150//150
f 150//150 153//153 149//149
f 145//145 122//122 156//156
f 145//145 144//144 139//139
f 122//122 145//145 137//137
f 123//123 124//124 125//125
f 158//158 157//157 159//159
f 158//158 161//161 162//162
f 163//163 144//144 145//145
f 145//145 156//156 163//163
f 162//162 163//163 158//158
f 122//122 123//123 156//156
f 156//156 123//123 163//163
f 163//163 125//125 157//157
f 163//163 157//157 158//158
f 168//168 164//164 158//158
f 160//160 158//158 164//164
f 165//165 167//167 166//166
f 164//164 167//167 165//165
f 160//160 164//164 165//165
f 158//158 159//159 168//168
f 160//160 165//165 166//166
f 160//160 166//166 159//159
f 125//125 163//163 123//123
f 160//160 159//159 161//161
f 160//160 161//161 158//158
f 170//170 169//169 171//171
f 170//170 172//172 173//173
f 126//126 171//171 125//125
f 126//126 124//124 174//174
f 174//174 175//175 176//176
f 176//176 124//124 127//127
f 176//176 127//127 177//177
f 177//177 128//128 131//131
f 178//178 131//131 179//179
f 179//179 131//131 133//133
f 133//133 131//131 132//132
f 133//133 134//134 179//179
f 179//179 134//134 180//180
f 23//23 25//25 181//181
f 181//181 25//25 182//182
f 173//173 182//182 25//25
f 173//173 25//25 28//28
f 28//28 27//27 29//29
f 180//180 23//23 181//181
f 178//178 179//179 180//180
f 178//178 180//180 181//181
f 178//178 181//181 182//182
f 178//178 177//177 131//131
f 177//177 178//178 176//176
f 19//19 134//134 120//120
f 18//18 19//19 120//120
f 176//176 178//178 182//182
f 183//183 171//171 176//176
f 183//183 176//176 182//182
f 182//182 173//173 184//184
f 182//182 184//184 183//183
f 171//171 183//183 172//172
f 172//172 183//183 173//173
f 173//173 28//28 170//170
f 170//170 28//28 29//29
f 170//170 187//187 169//169
f 187//187 188//188 189//189
f 192//192 144//144 163//163
f 191//191 192//192 193//193
f 191//191 193//193 189//189
f 191//191 189//189 190//190
f 190//190 189//189 188//188
f 163//163 162//162 193//193
f 193//193 162//162 169//169
f 169//169 187//187 189//189
f 169//169 162//162 161//161
f 189//189 193//193 169//169
f 163//163 193//193 192//192
f 188//188 187//187 194//194
f 33//33 35//35 196//196
f 33//33 196//196 31//31
f 190//190 195//195 191//191
f 173//173 183//183 184//184
f 174//174 171//171 126//126
f 171//171 172//172 170//170
f 169//169 125//125 171//171
f 161//161 125//125 169//169
f 159//159 157//157 161//161
f 123//123 122//122 127//127
f 123//123 127//127 124//124
f 124//124 176//176 175//175
f 127//127 122//122 177//177
f 177//177 122//122 128//128
f 174//174 124//124 175//175
f 191//191 195//195 143//143
f 191//191 143//143 192//192
f 192//192 143//143 140//140
f 140//140 144//144 192//192
f 143//143 195//195 142//142
f 37//37 141//141 35//35
f 195//195 190//190 142//142
f 197//197 114//114 119//119
f 118//118 119//119 114//114
f 113//113 114//114 115//115
f 115//115 114//114 197//197
f 115//115 197//197 116//116
f 116//116 197//197 119//119
f 116//116 119//119 117//117
f 125//125 161//161 157//157
f 112//112 110//110 18//18
f 112//112 18//18 115//115
f 115//115 18//18 120//120
f 113//113 111//111 112//112
f 112//112 114//114 113//113
f 132//132 135//135 134//134
f 151//151 108//108 111//111
f 111//111 108//108 109//109
f 111//111 135//135 151//151
f 151//151 135//135 154//154
f 154//154 135//135 132//132
f 200//200 201//201 202//202
f 205//205 201//201 204//204
f 202//202 203//203 206//206
f 205//205 203//203 202//202
f 199//199 200//200 206//206
f 199//199 206//206 207//207
f 209//209 210//210 211//211
f 211//211 212//212 213//213
f 209//209 212//212 215//215
f 215//215 212//212 210//210
f 216//216 106//106 100//100
f 216//216 100//100 101//101
f 82//82 106//106 217//217
f 82//82 217//217 218//218
f 82//82 218//218 219//219
f 218//218 220//220 90//90
f 94//94 90//90 220//220
f 94//94 221//221 87//87
f 220//220 222//222 221//221
f 87//87 221//221 96//96
f 207//207 206//206 224//224
f 224//224 206//206 225//225
f 225//225 226//226 224//224
f 224//224 226//226 223//223
f 96//96 223//223 225//225
f 208//208 207//207 223//223
f 208//208 223//223 96//96
f 222//222 96//96 221//221
f 226//226 225//225 223//223
f 97//97 96//96 98//98
f 98//98 96//96 206//206
f 206//206 96//96 225//225
f 223//223 207//207 224//224
f 82//82 219//219 83//83
f 83//83 91//91 85//85
f 91//91 83//83 219//219
f 91//91 219//219 90//90
f 83//83 85//85 84//84
f 90//90 219//219 218//218
f 106//106 210//210 217//217
f 222//222 210//210 209//209
f 211//211 210//210 212//212
f 214//214 212//212 209//209
f 214//214 213//213 212//212
f 217//217 210//210 218//218
f 220//220 210//210 222//222
f 208//208 222//222 227//227
f 228//228 227//227 229//229
f 222//222 229//229 227//227
f 208//208 209//209 215//215
f 215//215 106//106 198//198
f 106//106 215//215 210//210
f 214//214 211//211 213//213
f 214//214 209//209 211//211
f 200//200 202//202 206//206
f 227//227 228//228 209//209
f 227//227 209//209 208//208
f 222//222 208//208 96//96
f 222//222 209//209 229//229
f 228//228 229//229 209//209
f 199//199 207//207 208//208
f 215//215 198//198 208//208
f 208//208 198//198 199//199
f 216//216 198//198 106//106
f 198//198 56//56 199//199
f 199//199 56//56 57//57
f 56//56 198//198 216//216
f 200//200 57//57 230//230
f 230//230 231//231 201//201
f 231//231 84//84 98//98
f 231//231 98//98 201//201
f 201//201 98//98 204//204
f 204//204 98//98 206//206
f 206//206 203//203 204//204
f 201//201 205//205 202//202
f 230//230 201//201 200//200
f 83//83 84//84 231//231
f 83//83 231//231 81//81
f 81//81 231//231 232//232
f 57//57 59//59 230//230
f 231//231 230//230 232//232
f 230//230 59//59 232//232
f 200//200 199//199 57//57
f 54//54 56//56 104//104
f 216//216 104//104 56//56
f 36//36 234//234 38//38
f 36//36 71//71 234//234
f 233//233 234//234 58//58
f 60//60 67//67 61//61
f 61//61 67//67 66//66
f 63//63 62//62 66//66
f 66//66 62//62 61//61
f 58//58 234//234 235//235
f 70//70 235//235 71//71
f 70//70 68//68 235//235
f 235//235 68//68 58//58
f 58//58 68//68 60//60
f 234//234 71//71 235//235
f 72//72 71//71 34//34
f 71//71 36//36 34//34
f 233//233 58//58 57//57
f 38//38 53//53 40//40
f 38//38 233//233 55//55
f 55//55 233//233 57//57
f 233//233 38//38 234//234
f 132//132 155//155 154//154
f 153//153 154//154 155//155
f 56//56 55//55 57//57
f 164//164 168//168 167//167
f 159//159 166//166 167//167
f 167//167 168//168 159//159
f 220//220 218//218 210//210
f 94//94 220//220 221//221
f 94//94 87//87 86//86
f 94//94 86//86 93//93
f 93//93 86//86 88//88
f 89//89 88//88 91//91
f 23//23 236//236 22//22
f 22//22 236//236 19//19
f 19//19 236//236 134//134
f 134//134 236//236 180//180
f 236//236 23//23 180//180
f 170//170 29//29 237//237
f 237//237 238//238 239//239
f 240//240 239//239 241//241
f 244//244 243//243 238//238
f 245//245 243//243 241//241
f 241//241 243//243 242//242
f 241//241 239//239 245//245
f 238//238 245//245 239//239
f 243//243 245//245 238//238
f 243//243 244//244 242//242
f 185//185 186//186 246//246
f 246//246 237//237 239//239
f 239//239 240//240 246//246
f 237//237 246//246 170//170
f 170//170 246//246 187//187
f 187//187 246//246 186//186
f 240//240 244//244 246//246
f 244//244 238//238 246//246
f 246//246 238//238 185//185
f 238//238 29//29 185//185
f 241//241 244//244 240//240
f 241//241 242//242 244//244
f 238//238 237//237 29//29
f 190//190 188//188 194//194
f 196//196 247//247 185//185
f 196//196 185//185 29//29
f 29//29 30//30 196//196
f 247//247 196//196 248//248
f 248//248 196//196 35//35
f 248//248 35//35 141//141
f 141//141 142//142 248//248
f 248//248 142//142 194//194
f 248//248 194//194 247//247
f 31//31 196//196 30//30
f 185//185 247//247 186//186
f 186//186 247//247 187//187
f 247//247 194//194 187//187
f 9//9 79//79 20//20
f 20//20 79//79 21//21
f 9//9 16//16 11//11
f 10//10 15//15 16//16
f 10//10 12//12 14//14
f 10//10 16//16 8//8
f 8//8 16//16 20//20
f 20//20 16//16 9//9
f 6//6 8//8 20//20
f 11//11 12//12 10//10
f 79//79 9//9 17//17
f 81//81 62//62 63//63
f 63//63 64//64 81//81
f 232//232 62//62 81//81
f 232//232 59//59 62//62
f 62//62 59//59 61//61
f 249//249 250//250 251//251
f 44//44 250//250 249//249
f 44//44 249//249 43//43
f 43//43 249//249 48//48
f 251//251 48//48 249//249
f 47//47 48//48 251//251
f 47//47 251//251 49//49
f 46//46 49//49 250//250
f 46//46 250//250 44//44
f 250//250 49//49 251//251
f 84//84 97//97 98//98
f 92//92 86//86 85//85
f 85//85 91//91 92//92
f 205//205 204//204 203//203
f 174//174 176//176 171//171
f 155//155 132//132 130//130
f 104//104 216//216 101//101
f 142//142 190//190 194//194
