# Created by Open3D 
# object name: bunny
# number of vertices: 510
# number of triangles: 1000
v -0.0903224 0.135766 0.0147141
vn -0.940074 0.125815 -0.316908
v -0.0924376 0.129322 0.0268131
vn -0.959239 0.274225 0.068273
v -0.0863594 0.109738 0.0195246
vn -0.974925 -0.201555 0.0943209
v -0.034118 0.050594 -0.0107595
vn -0.358448 0.399865 -0.843577
v -0.030468 0.05169 -0.0166137
vn -0.948529 0.018732 -0.316136
v -0.0859535 0.14317 0.00762125
vn -0.861513 0.247927 -0.443088
v -0.0336904 0.105508 -0.0206999
vn -0.0433312 0.345 -0.937602
v -0.0446756 0.108048 -0.0194325
vn -0.0253947 0.332427 -0.942787
v -0.0300378 0.0913178 -0.0252172
vn -0.700576 0.442026 -0.560184
v -0.0303581 0.100101 -0.02307
vn -0.154562 0.211144 -0.965157
v -0.0848136 0.109954 0.005069
vn -0.894537 -0.344887 -0.284353
v -0.0820634 0.148891 0.00210563
vn -0.791239 0.261749 -0.552656
v -0.089649 0.146064 0.011149
vn -0.880125 0.0413137 -0.472941
v -0.0285061 0.125333 0.00433772
vn 0.0306404 0.988336 -0.149176
v -0.00744956 0.130461 0.0107102
vn -0.164217 0.985541 -0.0417313
v -0.0219135 0.126645 0.0161525
vn -0.276137 0.946679 0.165972
v -0.00804763 0.128989 0.00084025
vn -0.16675 0.945257 -0.280506
v -0.0693362 0.173813 -0.0421785
vn 0.529791 0.771158 0.35304
v -0.0671724 0.165944 -0.0234275
vn 0.545963 0.775977 0.315887
v -0.079378 0.154922 0.024288
vn -0.188993 0.965264 0.180408
v -0.0871565 0.152319 0.0199674
vn -0.515676 0.850872 0.100478
v -0.0434422 0.126555 0.019259
vn 0.593492 0.713645 0.372127
v -0.0487883 0.137274 0.0144264
vn 0.918207 0.390111 0.0686247
v -0.0779072 0.155695 0.0166981
vn -0.127341 0.991832 -0.00734438
v -0.0924616 0.12096 0.00947753
vn -0.950674 -0.0418446 -0.307357
v -0.0290414 0.119608 0.0287431
vn -0.16723 0.817301 0.551411
v -0.0874098 0.102809 0.0208839
vn -0.897584 0.342423 0.277649
v -0.0350099 0.0832184 -0.0235997
vn -0.715269 -0.0803483 -0.694215
v -0.0735366 0.155203 0.00291588
vn 0.0226986 0.972596 0.23139
v -0.0232466 0.0399442 0.0540119
vn 0.0875118 0.0198593 0.995966
v -0.066616 0.154943 0.00303544
vn 0.0864761 0.991451 -0.0977031
v 0.001596 0.130223 0.000764
vn -0.00694474 0.96193 -0.273206
v -0.0857861 0.0795376 0.0147998
vn -0.868792 -0.494431 0.0271787
v -0.0870708 0.0849148 0.006856
vn -0.90908 -0.373792 -0.183995
v 0.0167232 0.102133 -0.0216543
vn 0.174609 0.434484 -0.883592
v -0.0615376 0.0419175 0.0427387
vn -0.573432 0.327364 0.751005
v -0.0883677 0.09655 0.00642275
vn -0.968233 0.0670469 -0.240894
v -0.0557574 0.152484 0.0273435
vn 0.73637 0.59529 0.321542
v 0.0595175 0.0698745 0.0147861
vn 0.820458 0.546203 0.168851
v -0.0816555 0.0758131 0.020567
vn -0.833599 -0.520956 0.183624
v -0.045446 0.168254 0.00169
vn -0.450943 0.790582 0.414283
v -0.0449869 0.163624 0.00539206
vn 0.0758463 0.486198 0.870551
v -0.089122 0.133627 0.004231
vn -0.842174 0.177819 -0.509042
v -0.089297 0.0924478 0.0202356
vn -0.987391 -0.033312 0.154758
v -0.0858612 0.0838991 0.0211033
vn -0.911628 -0.383551 0.147726
v -0.0148616 0.12443 0.029393
vn -0.303412 0.837579 0.454316
v -0.067165 0.146433 -0.0241484
vn 0.263814 -0.928074 -0.262833
v -0.0719015 0.147385 -0.027314
vn -0.507202 -0.846188 -0.163439
v -0.0118303 0.163852 -0.0161265
vn 0.401605 -0.833054 -0.380441
v -0.0549694 0.155208 0.0119675
vn 0.358634 0.84445 0.397851
v -0.0671548 0.152551 -0.0466299
vn 0.683259 -0.683365 -0.257233
v -0.0568642 0.0454892 0.043045
vn -0.196061 0.744444 0.63825
v -0.0602932 0.13871 0.0343493
vn 0.713771 0.091256 0.694408
v -0.00659125 0.129402 0.0238448
vn -0.124708 0.938474 0.322047
v -0.0906129 0.142889 0.0249957
vn -0.988446 -0.0826165 0.127081
v -0.0509452 0.0548223 0.0165986
vn -0.872816 -0.448091 0.193407
v -0.0632107 0.155211 0.0267829
vn 0.1261 0.971255 0.201897
v 0.018233 0.034352 0.0022425
vn -0.159923 -0.915122 0.370104
v -0.0171474 0.186802 -0.0198824
vn 0.763214 0.358019 0.53789
v -0.0129647 0.183431 -0.0265915
vn 0.587497 0.76774 -0.255778
v -0.0552314 0.0565612 0.0105889
vn -0.477388 -0.869084 0.129592
v -0.0613242 0.0464288 0.0344295
vn -0.56479 0.825033 0.0182266
v -0.0532858 0.0496127 0.0271568
vn -0.797776 0.564361 -0.21225
v -0.0634783 0.175287 -0.0545017
vn 0.819186 0.478432 0.316287
v -0.0730443 0.171372 -0.0320258
vn -0.0990232 0.929078 0.356383
v -0.074316 0.179471 -0.049364
vn -0.0798457 0.954005 0.288961
v -0.0646066 0.155791 -0.00918462
vn 0.766182 0.573407 0.290119
v -0.0738959 0.161469 -0.0114668
vn -0.455785 0.800126 0.389948
v -0.0561005 0.159659 0.00226889
vn -0.699328 0.703214 -0.128179
v -0.0362461 0.110965 0.0362244
vn -0.0743378 0.564028 0.822403
v -0.0712516 0.151482 -0.0435635
vn -0.79056 -0.493036 -0.363223
v -0.0329381 0.177745 -0.00648942
vn -0.421528 0.857681 0.294444
v -0.0670011 0.18028 -0.0589358
vn -0.176696 0.698366 -0.693587
v -0.0945645 0.122914 0.0212145
vn -0.994249 0.0826476 -0.0681095
v -0.0812001 0.109169 0.0300367
vn -0.733636 -0.619355 0.279602
v -0.07724 0.176353 -0.050562
vn -0.776246 -0.321127 -0.542513
v -0.0623503 0.158523 -0.0198813
vn 0.977402 0.160018 0.138129
v -0.0639557 0.152637 0.0343876
vn 0.0300814 0.904308 0.425819
v -0.0893185 0.135495 0.0289568
vn -0.958648 0.270448 0.0886096
v -0.0222434 0.184928 -0.0169253
vn -0.630377 0.710731 -0.312227
v -0.0463228 0.044009 -0.0111334
vn -0.40089 0.302131 -0.864873
v -0.0485694 0.033632 -0.012971
vn -0.213928 -0.968787 -0.125244
v -0.0536564 0.0338188 -0.0119999
vn -0.304875 -0.186126 -0.934028
v -0.0232187 0.183235 -0.011792
vn 0.365589 0.589013 0.7207
v -0.0154395 0.0384568 0.00318342
vn 0.0260466 -0.999458 -0.020143
v -0.0192454 0.0821811 0.0571797
vn -0.228055 -0.19202 0.954526
v -0.0232258 0.0760888 0.052337
vn -0.702193 -0.371696 0.607262
v -0.0908192 0.149954 0.0174629
vn -0.948742 0.307863 -0.0714717
v -0.088464 0.088772 0.005476
vn -0.949881 0.0403321 -0.309998
v -0.0319822 0.125904 0.0172584
vn 0.171877 0.953129 0.249006
v -0.0771628 0.166545 -0.0268321
vn -0.763298 0.56914 0.305707
v -0.09239 0.114734 0.018313
vn -0.885229 -0.460666 0.0644729
v -0.017253 0.119579 0.0350077
vn -0.319909 0.59698 0.735712
v -0.0384896 0.122508 0.0272053
vn 0.100632 0.851527 0.514563
v -0.0481342 0.144507 0.00691475
vn 0.811974 -0.489833 0.317429
v -0.0508189 0.149306 0.0130555
vn 0.892333 0.0281624 0.450498
v -0.0721724 0.0351768 0.0013845
vn -0.88368 -0.464231 -0.0599874
v -0.0664503 0.0340932 -0.00643994
vn -0.567888 -0.431498 -0.700937
v -0.000226 0.097747 0.052518
vn 0.14569 0.581506 0.800391
v 0.0213698 0.125957 0.00885352
vn 0.510902 0.856725 -0.0707165
v 0.0163065 0.127689 0.00272431
vn 0.394833 0.881687 -0.258329
v -0.0907043 0.116295 0.0277914
vn -0.848129 -0.527812 0.0457374
v 0.0064295 0.131465 0.012231
vn 0.11443 0.993355 0.0123185
v -0.077184 0.152278 0.034002
vn -0.293401 0.872619 0.390451
v -0.0619907 0.161708 -0.0359661
vn 0.9615 0.268636 0.0578941
v -0.0279115 0.161749 -0.0145387
vn -0.0430751 -0.577912 -0.814961
v -0.0654177 0.148904 0.0384277
vn 0.316617 0.527507 0.788346
v -0.00982755 0.168742 -0.0230333
vn 0.63002 -0.587217 -0.508184
v 0.0173558 0.118907 0.0347502
vn 0.322265 0.580039 0.748131
v -0.0610504 0.169117 -0.0605073
vn 0.850978 -0.266391 -0.452629
v -0.0360032 0.172569 -0.0004715
vn 0.281124 0.379028 0.88165
v -0.0401982 0.0463749 -0.0182154
vn -0.584636 0.748977 -0.311823
v 0.0114935 0.13026 0.0188965
vn 0.269066 0.954199 0.130799
v -0.0359215 0.0345874 0.0348175
vn 0.0859443 -0.99424 0.0640268
v -0.0684635 0.116562 -0.00859537
vn -0.375622 0.228981 -0.89804
v -0.0845959 0.147981 0.0350366
vn -0.556954 0.69009 0.462146
v 0.0389225 0.101237 -0.006304
vn 0.816541 0.389893 -0.425727
v 0.0404911 0.106157 0.00855138
vn 0.900981 0.432706 -0.0315981
v -0.027507 0.037726 0.0186863
vn 0.463939 -0.873747 0.146036
v -0.0295103 0.0384309 0.0344907
vn 0.285015 -0.951806 0.11328
v -0.0500105 0.143276 0.00238356
vn 0.658471 -0.715455 -0.23354
v -0.0627161 0.160429 -0.0443614
vn 0.954664 -0.272249 -0.120401
v -0.0502975 0.065691 0.0361723
vn -0.47751 -0.435586 0.763052
v 0.020865 0.122279 0.030221
vn 0.439068 0.787452 0.432595
v 0.006807 0.129132 0.02652
vn 0.0518887 0.945811 0.320546
v -0.00735285 0.120543 0.0366872
vn -0.119719 0.635978 0.762364
v -0.0456794 0.148227 -0.00324052
vn 0.162224 -0.808326 -0.565944
v -0.0508538 0.13947 0.00198387
vn 0.806923 0.277561 -0.521377
v 0.0449132 0.0809045 0.000425312
vn 0.952362 -0.0187597 -0.304392
v 0.00854825 0.122613 0.0347773
vn 0.111733 0.698675 0.706661
v 0.0303041 0.112964 0.0315296
vn 0.609353 0.508588 0.608299
v 0.054677 0.073298 0.016718
vn 0.252772 0.91205 0.322911
v 0.0442031 0.0940038 0.0022465
vn 0.946253 0.225684 -0.231673
v 0.0509777 0.0677383 0.0262423
vn 0.056883 0.640598 0.765767
v -0.0621158 0.152374 -0.000698586
vn 0.293071 0.706304 -0.644394
v -0.0659211 0.164508 -0.0583405
vn -0.701754 -0.168947 -0.692097
v -0.063375 0.1608 -0.057006
vn 0.666513 -0.64383 -0.375824
v 0.00339622 0.117292 0.0390017
vn 0.13842 0.536255 0.832629
v -0.00639881 0.101552 0.0441139
vn -0.026317 0.826306 0.562606
v -0.0589447 0.14886 0.0347959
vn 0.80574 0.0864056 0.585932
v -0.0563314 0.0551479 0.00655706
vn -0.98502 0.00821193 0.172246
v -0.0763808 0.0677493 0.00881056
vn -0.686663 -0.726967 -0.00369259
v 0.0197924 0.0897168 0.0488837
vn 0.374658 0.215559 0.901757
v -0.0103532 0.175096 -0.0283061
vn 0.00181496 -0.343235 -0.939248
v 0.0143147 0.0950314 -0.0248846
vn 0.309608 0.544386 -0.779607
v -0.0834452 0.0840163 0.029336
vn -0.827457 -0.147945 0.541689
v 0.0393552 0.106272 0.0204157
vn 0.8892 0.422204 0.176256
v -0.0185555 0.159364 -0.00820816
vn 0.57244 -0.795518 0.198652
v -0.0416796 0.0343028 0.0286389
vn -0.0439402 -0.996858 0.0659019
v 0.0465091 0.0717464 0.0199956
vn 0.732855 0.51062 0.449656
v -0.0158547 0.0999078 0.0442667
vn -0.145318 0.422971 0.894415
v -0.0200577 0.10713 0.0418801
vn -0.129335 0.398009 0.908219
v -0.0729838 0.180297 -0.0547976
vn -0.703163 0.184305 -0.686726
v -0.0815782 0.119818 0.0490621
vn -0.308287 -0.316692 0.897031
v -0.0781066 0.12924 0.0526801
vn -0.131797 0.0922814 0.986972
v -0.0861215 0.1312 0.0481405
vn -0.656686 0.121489 0.744315
v -0.0797674 0.138678 0.048185
vn -0.407099 0.581088 0.704704
v -0.0373317 0.162052 -0.0130743
vn -0.316771 -0.256544 -0.913149
v -0.0643784 0.0374875 0.0251794
vn -0.798111 0.27455 -0.536321
v -0.0653468 0.102902 -0.0165026
vn -0.375183 0.222259 -0.89991
v -0.0718025 0.140252 0.0468824
vn 0.358658 0.450333 0.817658
v 0.033726 0.0806047 -0.0185754
vn 0.653515 0.00625976 -0.756887
v -0.050638 0.04738 0.01767
vn -0.945175 0.326457 0.00838028
v -0.0781792 0.175161 -0.0453956
vn -0.840194 0.502104 0.204856
v -0.054081 0.043499 0.018691
vn -0.6385 0.767753 -0.0535994
v -0.0676073 0.0431241 0.00044725
vn -0.636137 0.660196 -0.399339
v -0.0574566 0.044933 -0.00586781
vn -0.518949 0.645763 -0.560073
v -0.0388464 0.0592963 -0.011866
vn 0.0185371 -0.31668 -0.948351
v -0.00950594 0.0851683 -0.0382375
vn 0.166561 0.199199 -0.9657
v -0.0768587 0.154562 -0.00754603
vn -0.999838 0.0133002 0.0121335
v 0.0312537 0.0392409 -0.00196473
vn 0.238575 -0.760253 -0.604232
v 0.047221 0.0737921 0.0117419
vn 0.909589 0.415499 0.00296404
v -0.053083 0.138104 0.0275765
vn 0.882773 0.245257 0.4007
v -0.0885154 0.117532 0.00266775
vn -0.74032 -0.363353 -0.565597
v -0.030358 0.120244 -0.00948024
vn 0.164984 0.847235 -0.504948
v -0.0649912 0.101836 0.0415765
vn -0.205381 0.312552 0.927432
v -0.0601895 0.0693275 -0.014097
vn -0.163497 -0.631586 -0.757871
v -0.0684535 0.129344 -0.0088055
vn 0.0608442 0.0494723 -0.99692
v -0.0471707 0.129172 0.000246625
vn 0.409478 0.862952 -0.296043
v -0.0698853 0.0772405 -0.0147609
vn -0.509322 -0.470524 -0.720554
v -0.0425811 0.0640914 0.0408371
vn -0.252897 -0.196965 0.947232
v -0.0482675 0.0524209 0.0357727
vn -0.738387 0.120985 0.663436
v -0.0498676 0.0496732 0.0373857
vn -0.244546 0.903545 0.351857
v -0.028113 0.0724625 0.040876
vn -0.802662 -0.330226 0.496673
v -0.074142 0.148203 0.04108
vn -0.0922843 0.758794 0.64476
v 0.0607243 0.0650455 0.0136238
vn 0.992456 0.119918 -0.0254978
v -0.0599957 0.0965728 -0.0190881
vn -0.340777 0.107182 -0.934015
v -0.0629648 0.144357 -0.00697937
vn 0.914766 -0.362495 -0.178324
v -0.0254149 0.044404 0.0522511
vn -0.249618 0.53791 0.805198
v -0.076938 0.093777 -0.01271
vn -0.579776 0.0520591 -0.813111
v 0.0268584 0.0775088 0.0462342
vn 0.632648 -0.100844 0.767845
v 0.0212778 0.0700896 0.0489828
vn 0.55134 -0.226659 0.802901
v 0.0199199 0.0614293 0.048292
vn 0.465731 -0.074709 0.881767
v -0.04815 0.0727107 -0.0161289
vn -0.0273653 -0.425134 -0.904717
v -0.0675241 0.140578 -0.00796506
vn -0.0254748 -0.419895 -0.907215
v -0.054767 0.081227 -0.021409
vn -0.20246 -0.182597 -0.962117
v -0.067781 0.082316 -0.017855
vn -0.313386 -0.0674928 -0.947224
v 0.0590411 0.0570727 0.00833056
vn 0.931412 -0.328527 -0.156657
v 0.0561339 0.0499804 0.0129393
vn 0.792229 -0.610103 -0.0121263
v 0.0415592 0.0904323 -0.00865475
vn 0.755503 0.270368 -0.596755
v -0.0852887 0.0969388 0.0280628
vn -0.812859 0.156219 0.561121
v -0.066973 0.0365305 0.031578
vn -0.966488 0.1836 -0.179421
v -0.0906641 0.130108 0.0392365
vn -0.957471 0.233882 0.168964
v 0.00528206 0.0997176 -0.0228315
vn 0.137279 0.674436 -0.725459
v 0.00860831 0.129994 0.00178659
vn 0.200022 0.915325 -0.349531
v -0.066475 0.087548 0.04433
vn -0.321517 -0.0451443 0.945827
v -0.0721371 0.0758524 0.0366421
vn -0.472939 -0.430147 0.768962
v -0.0833901 0.123234 -0.00390509
vn -0.531439 -0.0683474 -0.844335
v -0.0147195 0.0635303 0.0537473
vn -0.31116 -0.269927 0.911218
v -0.0694389 0.122848 0.0529729
vn 0.341257 0.2198 0.91391
v 0.043408 0.095897 0.022148
vn 0.965989 0.173771 0.19149
v -0.0356178 0.0756685 -0.0190073
vn -0.625003 -0.322004 -0.711115
v -0.0818142 0.111472 3.225e-05
vn -0.77123 0.0500572 -0.634585
v -0.0441707 0.114882 0.0337861
vn 0.0375397 0.63395 0.772462
v -0.0728367 0.06932 -0.00302241
vn -0.566676 -0.709847 -0.418324
v -0.0834751 0.0941753 -0.00515994
vn -0.832774 0.116809 -0.54115
v -0.076343 0.114162 -0.005068
vn -0.569108 0.226538 -0.790441
v -0.076953 0.128149 -0.007492
vn -0.317116 0.0573946 -0.946649
v -0.0756928 0.144443 -0.00586275
vn -0.599509 0.00543402 -0.80035
v -0.0738599 0.119778 0.0531606
vn -0.202072 -0.221447 0.954006
v -0.0687851 0.155338 -0.0512141
vn -0.509744 -0.591491 -0.62474
v -0.0781903 0.152739 9.82813e-05
vn -0.587386 0.768163 -0.254762
v -0.0104458 0.110874 -0.0202066
vn -0.058497 0.56138 -0.825488
v -0.028592 0.049486 -0.02351
vn -0.768445 0.299621 -0.565438
v -0.0298414 0.154342 -0.00279204
vn 0.481057 -0.840598 0.248956
v -0.0926473 0.120523 0.040647
vn -0.968401 -0.0724202 0.238651
v -0.0572182 0.135152 -0.00549053
vn 0.507242 0.216353 -0.834205
v -0.0230081 0.181499 -0.0196192
vn -0.630729 0.321223 -0.706397
v 0.048266 0.043331 0.018561
vn 0.465398 -0.873395 0.143476
v 0.0223795 0.0354225 0.0267233
vn 0.33546 -0.903792 0.265757
v -0.00357123 0.0387234 -0.0132605
vn -0.0453407 -0.947185 0.317468
v -0.0406977 0.0349353 0.0413192
vn -0.0664425 -0.794556 0.603545
v -0.0427373 0.0754918 -0.0187554
vn -0.054343 -0.329792 -0.942488
v -0.0467738 0.0578063 -0.0112532
vn -0.250743 -0.281514 -0.926217
v 0.059248 0.057713 0.0199263
vn 0.892155 -0.117519 0.436176
v 0.0201709 0.0350003 -0.00293456
vn 0.386158 -0.860788 -0.331551
v -0.0622044 0.174821 -0.0612482
vn 0.555438 0.244875 -0.794686
v 0.0231467 0.106403 0.0398705
vn 0.367869 0.510266 0.777368
v -0.0724508 0.144138 -0.0127124
vn -0.554814 -0.78872 -0.264767
v 0.0101772 0.0592765 0.052182
vn 0.382128 -0.222449 0.896936
v 0.0112832 0.0562412 0.0523787
vn 0.355602 -0.255428 0.899057
v 0.002252 0.059827 0.0554275
vn 0.126083 -0.177897 0.975938
v 0.0122251 0.0656147 0.0535805
vn 0.422002 -0.167334 0.891018
v 0.00242203 0.0720146 0.0564353
vn 0.20939 -0.0744094 0.974997
v -0.0760347 0.111924 0.0467849
vn -0.103835 -0.81151 0.575039
v 0.032953 0.115744 0.0233045
vn 0.714357 0.685209 0.142065
v 0.0221535 0.0995495 -0.0211331
vn 0.389088 0.413495 -0.823184
v -0.0565478 0.14572 -0.00154987
vn 0.268688 0.141808 -0.952732
v -0.0729758 0.103444 0.0375936
vn -0.420569 0.254453 0.870848
v 0.0483699 0.0432361 0.00956281
vn 0.560163 -0.823854 -0.0864997
v 0.034863 0.0360555 0.012434
vn 0.240823 -0.970382 0.0190786
v -0.0529732 0.0661118 -0.0109378
vn -0.332381 -0.527559 -0.781796
v -0.0685747 0.117568 0.0517768
vn 0.415165 -0.330926 0.847423
v 0.000160094 0.0507752 0.0529807
vn -0.02418 -0.607161 0.79421
v -0.00649 0.10728 0.044013
vn 0.00893048 0.254636 0.966996
v 0.00752037 0.0385607 0.0311981
vn -0.477437 -0.865156 0.153492
v -0.00344835 0.0452858 0.0469558
vn 0.208437 -0.011539 0.977968
v 0.00456319 0.0358859 0.0457892
vn 0.193553 -0.545709 0.815315
v 0.0575068 0.0629762 0.00260309
vn 0.76384 0.115811 -0.63493
v 0.0505638 0.0474479 0.00165455
vn 0.60803 -0.652644 -0.452056
v 0.042099 0.0646055 0.028295
vn 0.742385 0.0383181 0.668877
v -0.0587714 0.0477841 0.00756063
vn -0.612629 0.583609 0.532998
v -0.0237289 0.0340741 -0.0205654
vn -0.0330918 -0.88977 0.455208
v -0.0271896 0.0383058 -0.0169879
vn 0.0789457 -0.883079 0.462536
v -0.0738386 0.108034 0.0374201
vn 0.069526 -0.728772 0.681217
v -0.0202934 0.173218 -0.0220995
vn -0.461446 -0.259009 -0.848517
v 0.0308664 0.0902662 -0.0194961
vn 0.507842 0.268443 -0.818556
v -0.00827965 0.0853407 0.057156
vn -0.0134259 0.136546 0.990543
v 0.0109785 0.0445045 0.0446155
vn 0.257098 -0.585314 0.768966
v 0.00281931 0.0853106 0.0572804
vn 0.167174 0.0905498 0.98176
v 0.00966216 0.0873457 0.0550391
vn 0.363744 0.196733 0.910487
v 0.00967745 0.110077 0.0399962
vn 0.0423222 0.534598 0.844046
v 0.0361088 0.0524179 0.0313371
vn 0.298833 -0.169583 0.939117
v -0.0352561 0.0338238 0.00973241
vn -0.0862802 -0.991229 0.100104
v 0.053174 0.0558641 -0.00217328
vn 0.68092 -0.209836 -0.701653
v -0.0888937 0.143812 0.0329885
vn -0.818649 0.418034 0.393778
v -0.0333067 0.0606664 -0.0131841
vn -0.79192 -0.313327 -0.524108
v 0.000173625 0.101323 0.0444196
vn -0.0412903 0.612562 0.789343
v 0.0156998 0.0776909 0.0533295
vn 0.398266 0.0252748 0.916922
v -0.0532267 0.0601258 0.0268673
vn -0.626693 -0.669525 0.398738
v -0.0651141 0.110255 0.0377417
vn 0.373079 -0.237615 0.896856
v 0.012409 0.0950287 0.0501362
vn 0.306736 0.430337 0.848954
v -0.0573857 0.0609281 -0.00299641
vn -0.490892 -0.716035 -0.496305
v -0.0690343 0.13248 0.0482062
vn 0.711371 0.30303 0.634132
v 0.0457733 0.0527306 -0.00576813
vn 0.333548 -0.135924 -0.932883
v -0.0401877 0.160856 0.00227584
vn 0.467542 0.421556 0.776978
v -0.0205972 0.115048 -0.0161392
vn -0.0966696 0.649677 -0.754039
v -0.021726 0.107873 -0.0217379
vn -0.0362816 0.439698 -0.897413
v -0.00550955 0.0951473 -0.0327596
vn 0.0935346 0.708009 -0.699981
v -0.0185258 0.0939812 -0.0335889
vn -0.169484 0.806087 -0.567009
v 0.033566 0.114779 0.00063
vn 0.707232 0.685921 -0.171277
v 0.043999 0.0473846 -0.00423284
vn 0.405365 -0.601767 -0.688154
v 0.0219523 0.045164 -0.0176581
vn 0.715574 -0.574488 -0.397388
v 0.027194 0.047968 -0.016703
vn 0.69285 -0.660864 -0.288474
v -0.0270211 0.0352538 0.0518797
vn -0.192372 -0.921949 0.33616
v -0.0309816 0.0373209 0.0518098
vn -0.580941 -0.164131 0.797225
v -0.01475 0.0485815 0.0477138
vn -0.183531 -0.0813244 0.979644
v 0.0399827 0.0395755 0.003425
vn 0.412775 -0.860912 -0.297401
v -0.0370787 0.0353153 0.0233838
vn -0.631663 -0.757378 -0.16547
v -0.0774959 0.10598 0.0340749
vn -0.713868 0.0240609 0.699867
v 0.038708 0.04324 0.028644
vn 0.213563 -0.683596 0.697917
v -0.0904059 0.114109 0.0359722
vn -0.697436 -0.716096 -0.0281035
v 0.0436431 0.0502319 0.0319753
vn 0.288439 -0.307104 0.906912
v -0.0411038 0.172332 -0.00745077
vn -0.651143 0.665355 -0.365124
v -0.0146554 0.163499 -0.010919
vn 0.609167 0.37961 0.696284
v -0.0158229 0.0384577 0.0259592
vn 0.0225121 -0.998616 0.0475315
v -0.00299253 0.0904218 -0.0351799
vn 0.224542 0.358288 -0.906207
v -0.00402644 0.0642467 0.0562742
vn -0.201016 -0.194331 0.960119
v -0.0149242 0.0438892 -0.0269724
vn 0.11581 -0.257101 -0.95942
v -0.0148864 0.035207 -0.0263251
vn 0.199354 -0.429317 -0.880877
v -0.0283821 0.0621799 0.0376863
vn -0.158244 -0.187586 0.969417
v -0.0060025 0.0561945 0.053864
vn -0.16241 -0.297865 0.940691
v -0.00643119 0.0727206 0.0581029
vn -0.099777 -0.172046 0.980023
v 0.0529676 0.0616874 0.0286473
vn 0.506413 0.136661 0.851393
v 0.0389017 0.0787543 -0.0110221
vn 0.82207 -0.11044 -0.558573
v 0.0351592 0.103058 0.0323626
vn 0.752122 0.361507 0.551022
v 0.0103582 0.0817225 0.0543072
vn 0.305857 0.10626 0.946129
v -0.0251508 0.0947158 0.0449667
vn -0.189842 0.346068 0.918802
v -0.015439 0.173487 -0.0180184
vn 0.500187 0.348338 0.792763
v -0.0305168 0.170204 -0.00698013
vn 0.713521 -0.126823 0.68906
v 0.0338017 0.0698188 -0.0169033
vn 0.687497 -0.057191 -0.723932
v 0.0264925 0.0740068 -0.0243505
vn 0.599567 -0.0540873 -0.798495
v -0.00430825 0.0383945 0.0119557
vn -0.532237 -0.846432 -0.016649
v 0.004058 0.0391265 -0.0077765
vn -0.114477 -0.99305 -0.0273257
v -0.0581436 0.0584851 0.00362128
vn -0.714948 -0.670954 -0.196648
v 0.00805212 0.0936879 -0.0302098
vn 0.376762 0.517115 -0.768532
v 0.000242555 0.109498 -0.0205495
vn 0.138276 0.285466 -0.948361
v -0.0496677 0.128966 0.030823
vn 0.821475 0.258682 0.508195
v 0.00541857 0.0871427 -0.0334691
vn 0.307529 0.17307 -0.935667
v 0.0109448 0.0349361 0.0314724
vn -0.387778 -0.921649 -0.0138323
v 0.011126 0.034568 0.0202755
vn 0.0421006 -0.999077 0.00854886
v -0.0570277 0.073505 0.0410491
vn -0.177919 -0.505859 0.844069
v -0.0525517 0.126909 -0.00517175
vn 0.150807 0.565163 -0.811078
v -0.0569342 0.090037 0.0449152
vn -0.00365776 -0.0609762 0.998133
v -0.0469965 0.119999 0.0287297
vn 0.396775 0.558949 0.728111
v -0.001178 0.0384654 0.0208044
vn -0.390233 -0.856908 0.336789
v -0.06742 0.0442546 0.00627644
vn -0.589641 0.794576 0.144819
v -0.0586019 0.0484534 0.00272031
vn -0.799653 0.53039 -0.281499
v 0.017528 0.034889 -0.013514
vn 0.329214 -0.933772 -0.140317
v -0.0645013 0.0620348 -0.00227375
vn -0.359081 -0.826874 -0.432829
v -0.056481 0.108389 -0.0178437
vn -0.235871 0.316551 -0.918782
v -0.0553643 0.0813702 0.0447803
vn -0.137098 -0.188537 0.97245
v -0.0305553 0.035196 -0.0300685
vn 0.169501 -0.22302 -0.959964
v -0.0784207 0.0780615 0.0320692
vn -0.701843 -0.531147 0.474657
v -0.0891002 0.117213 0.045003
vn -0.686856 -0.343884 0.640292
v -0.0297533 0.0381331 0.00362288
vn 0.0216714 -0.998826 -0.0433302
v -0.0692597 0.168422 -0.0529348
vn -0.873183 -0.187971 -0.449687
v -0.0546435 0.114645 0.0351514
vn 0.384386 0.0375363 0.922409
v -0.0753236 0.150116 -0.0227477
vn -0.983562 -0.13767 -0.116841
v -0.043297 0.154353 0.00730484
vn 0.505183 -0.0690454 0.860246
v 0.0166396 0.0428216 0.0441866
vn 0.388827 0.0293466 0.920843
v -0.029526 0.0531624 0.0368531
vn -0.324981 0.715479 0.618447
v -0.0668748 0.0386948 -0.00557406
vn -0.610134 0.417737 -0.673226
v -0.0820517 0.134868 -0.00207353
vn -0.607417 0.234199 -0.759075
v -0.0495579 0.0923792 0.0446431
vn 0.0917718 0.201491 0.975182
v -0.0318686 0.0461967 0.0464276
vn -0.524064 0.656407 0.542666
v -0.0462115 0.15713 -0.00788744
vn -0.462835 -0.174386 -0.869122
v -0.0230351 0.0735 -0.0382602
vn -0.387848 -0.237896 -0.890494
v 0.0518081 0.0611657 -0.00322419
vn 0.205364 0.307833 -0.929013
v 0.0463815 0.0590601 0.0316011
vn 0.189174 0.183849 0.964579
v -0.0533194 0.0416395 0.0459815
vn 0.140616 0.36236 0.92137
v -0.0523107 0.105181 0.0401098
vn 0.0206176 0.419966 0.907305
v -0.014224 0.0928487 0.0555238
vn -0.207303 0.447368 0.869993
v 0.0306238 0.05649 -0.0158612
vn 0.752411 -0.309854 -0.581264
v 0.0223315 0.0564615 -0.026144
vn 0.626944 -0.0791612 -0.775032
v 0.0209269 0.0843065 -0.0266731
vn 0.495142 0.192794 -0.847151
v -0.0237446 0.046838 -0.0271379
vn -0.0490131 0.216584 -0.975033
v -0.0448172 0.0392606 -0.0213427
vn -0.809577 0.443138 -0.384985
v -0.0134785 0.103032 -0.0233739
vn -0.0545764 0.278414 -0.958909
v -0.0594443 0.121152 -0.00910963
vn -0.178283 0.493465 -0.851297
v -0.046501 0.08476 0.044632
vn 0.227652 -0.207046 0.951476
v 0.0261815 0.0663736 -0.0226015
vn 0.644939 -0.111563 -0.756047
v -0.0536671 0.052266 -0.00569438
vn -0.721521 0.0575236 -0.689999
v 0.0160338 0.107614 -0.0177929
vn 0.306959 0.369033 -0.877263
v 0.006417 0.113411 -0.0191876
vn 0.170891 0.435821 -0.883661
v 0.0207473 0.0652923 -0.0272991
vn 0.467171 -0.0576375 -0.882286
v -0.0471855 0.0741928 0.0419638
vn 0.0519606 -0.202356 0.977933
v -0.0461244 0.0921874 -0.0218731
vn -0.131266 -0.0781601 -0.988261
v -0.0551655 0.0952702 -0.021605
vn -0.212219 0.114013 -0.970548
v -0.0450417 0.0447272 0.0420953
vn 0.106617 0.455546 0.883805
v -0.0717853 0.038161 0.00812825
vn -0.846164 0.288495 0.448082
v -0.044495 0.104328 0.041515
vn 0.066369 0.390007 0.918417
v -0.065098 0.0426125 0.0116285
vn -0.530808 0.595926 0.60259
v -0.0212295 0.0504546 0.0452556
vn -0.561234 0.0892837 0.822827
v -0.031174 0.07704 -0.0325665
vn -0.841488 -0.0815921 -0.534079
v 0.00873081 0.0363302 -0.00896188
vn -0.516107 -0.848506 -0.116926
v -0.0103526 0.166885 -0.017827
vn 0.81663 0.265802 0.512313
v -0.034957 0.043145 -0.028605
vn -0.285024 0.443051 -0.849981
v -0.0418364 0.0906548 0.0424492
vn -0.0328267 0.0906303 0.995343
v -0.043746 0.115474 -0.0156549
vn -0.00380883 0.468013 -0.883713
v -0.049112 0.036161 0.045993
vn 0.227981 -0.526262 0.81919
v 0.0271321 0.0414001 0.032573
vn 0.689374 -0.614156 0.384157
v -0.0394971 0.0527935 0.0392264
vn 0.100965 0.0172936 0.99474
v -0.0392426 0.0801111 0.0432916
vn -0.0543735 -0.11439 0.991947
v -0.0374596 0.04639 0.0403362
vn -0.428372 0.430146 0.794652
v -0.0319171 0.174229 -0.0029765
vn 0.580636 0.118861 0.80544
v 0.0501354 0.0471339 0.023538
vn 0.56892 -0.676735 0.46729
v -0.0362432 0.0627083 0.0409983
vn 0.225401 -0.142196 0.963833
v -0.0391547 0.0338792 -0.029429
vn -0.308761 -0.683093 -0.661854
v -0.038991 0.104479 0.0393573
vn -0.0251331 0.419342 0.907481
v 0.0245568 0.052282 -0.022464
vn 0.590975 -0.397724 -0.701829
v 0.0570019 0.0705704 0.00737088
vn 0.610207 0.729054 -0.310045
v -0.0146513 0.0363934 0.0513199
vn 0.28512 -0.294977 0.911973
v -0.0220408 0.159578 -0.003806
vn 0.568014 -0.124145 0.813602
v -0.0330012 0.0857363 0.0424333
vn 0.123692 -0.157214 0.979788
v -0.017768 0.095999 0.051107
vn -0.328362 0.764295 0.555006
v -0.0287364 0.0908245 0.0445593
vn -0.504734 0.289312 0.813353
v -0.0430426 0.129701 0.0111475
vn 0.556279 0.829189 0.0547684
v -0.030516 0.085336 0.0430575
vn -0.663478 -0.114086 0.739447
v -0.0280941 0.104842 0.0411954
vn -0.190608 0.500983 0.844207
v 0.0533743 0.0685544 0.00218719
vn 0.161911 0.687379 -0.708022
v -0.0619484 0.0344087 0.0201052
vn -0.846769 -0.243531 0.472942
v 0.0182873 0.0480583 -0.02302
vn 0.523755 -0.319539 -0.789668
v 0.0398875 0.0678285 -0.009511
vn 0.841507 -0.18344 -0.50815
v -0.00405128 0.116012 -0.0165616
vn -0.0780481 0.628594 -0.773808
v -0.0212616 0.0613143 0.0464736
vn -0.789862 -0.164755 0.59074
v -0.00442162 0.1006 -0.0235673
vn 0.0269345 0.685583 -0.727496
v 0.043535 0.084509 0.026968
vn 0.897625 0.0255506 0.440019
v -0.021612 0.0968888 -0.0249678
vn -0.267336 0.723156 -0.636849
v -0.0435969 0.0352724 -0.0257648
vn -0.786931 0.0490267 -0.61509
v -0.0644509 0.0355553 0.0405729
vn -0.878917 -0.0329779 0.475832
v -0.024276 0.0847209 0.0538697
vn -0.704693 0.0526388 0.707557
v -0.058943 0.035741 0.04587
vn -0.122322 -0.773635 0.621712
v 0.0410355 0.0615503 -0.00304139
vn 0.388585 0.310642 -0.867469
v 0.0325665 0.103413 -0.0128834
vn 0.623182 0.345278 -0.701732
v 0.00780802 0.0347592 0.00402183
vn 0.21082 -0.922752 0.322621
v 0.024912 0.050526 0.039297
vn 0.607818 -0.263164 0.749201
v 0.0295735 0.0601376 0.041774
vn 0.548899 -0.296624 0.781488
v -0.0322941 0.15881 0.00225141
vn 0.239517 0.566801 0.788269
v 0.0359804 0.0730903 0.0379831
vn 0.63837 -0.0733627 0.766226
v 0.0183644 0.0484522 0.042647
vn 0.481051 -0.500273 0.719943
v 0.0158221 0.0549389 0.0484189
vn 0.412159 -0.292342 0.862937
v 0.0383905 0.0910218 0.0344844
vn 0.818459 0.162488 0.55111
v 0.0278675 0.0962212 0.0431965
vn 0.562692 0.190083 0.804516
v 0.056325 0.068689 0.023417
vn 0.653034 0.40831 0.637832
v -0.0126131 0.0348662 0.047957
vn 0.0387973 -0.986156 0.161216
v 0.0325227 0.0897971 0.042213
vn 0.578481 0.0531969 0.813959
v 0.0542248 0.0560848 0.0272958
vn 0.633472 -0.343902 0.693141
v 0.015428 0.035092 0.04111
vn 0.408746 -0.791907 0.453663
v -0.068993 0.113879 0.0493297
vn 0.571358 -0.703611 0.422471
v -0.0612099 0.121196 0.0423321
vn 0.791572 -0.134824 0.596017
v -0.0631788 0.130513 0.0414627
vn 0.717504 0.35005 0.602207
v 0.0113401 0.0342933 -0.0131495
vn -0.184011 -0.86178 0.472731
v -0.0548415 0.122652 0.0382585
vn 0.627223 0.122304 0.769177
v -0.03008 0.0345985 0.041849
vn -0.0113479 -0.999179 0.0388948
v 0.0261363 0.118837 -0.00397337
vn 0.54584 0.712325 -0.441193
v -0.0579416 0.059401 0.0216874
vn -0.247931 -0.917009 0.312449
v -0.024915 0.0878902 -0.0357535
vn -0.425552 0.411964 -0.805724
v 0.000871625 0.0348569 0.0392178
vn -0.03715 -0.995745 -0.0843344
v -0.0222112 0.0335596 -0.0261231
vn 0.0535952 -0.981028 -0.186313
v 0.0143656 0.122577 -0.009107
vn 0.310945 0.769041 -0.558471
v 0.00629156 0.119742 -0.0147047
vn 0.0288099 0.697599 -0.715909
v -0.0264665 0.0616359 -0.030347
vn -0.677765 -0.300029 -0.67128
v -0.0547348 0.15589 -0.00211734
vn -0.604378 0.198805 -0.771495
v -0.0138648 0.125782 -0.00396886
vn -0.209707 0.810327 -0.547168
v 0.0294877 0.11204 -0.00900309
vn 0.568693 0.538017 -0.622194
v -0.0503963 0.12022 -0.0125875
vn -0.174652 0.626724 -0.759417
v -0.00673556 0.0394833 0.0372378
vn 0.0363091 -0.992287 0.118526
v -0.013214 0.034838 0.0434629
vn -0.0324287 -0.997261 -0.066481
v 0.001645 0.034813 0.004066
vn -0.592637 -0.74755 -0.299919
v -0.0788058 0.168016 -0.0382303
vn -0.761812 -0.549198 -0.343546
v 0.0139884 0.0379023 -0.0216877
vn 0.411983 -0.458513 -0.787423
v 0.0319444 0.0490302 -0.00693369
vn 0.268767 -0.390025 -0.880707
v 0.0042193 0.0348825 -0.0221265
vn 0.125388 -0.847886 -0.515137
v -0.0183015 0.0850403 -0.0387813
vn -0.119203 0.178373 -0.976716
v -0.078121 0.161318 -0.0254362
vn -0.948386 -0.298407 -0.107315
v 0.0478113 0.0719807 0.00606088
vn 0.106447 0.905849 -0.410007
v 0.000207641 0.126017 -0.00730596
vn -0.0123389 0.795183 -0.606244
v -0.0817268 0.082479 -0.00534389
vn -0.789411 -0.253796 -0.558943
v -0.063607 0.0336325 0.00546107
vn -0.0671635 -0.997531 0.0204982
v -0.0160942 0.180556 -0.0261659
vn -0.580571 0.0293992 -0.813678
v -0.0288384 0.115857 -0.0148917
vn 0.0139662 0.650489 -0.759387
v -0.0704653 0.0628832 0.00682159
vn -0.538704 -0.81943 -0.195788
v 0.0233468 0.0350423 0.0142678
vn -0.363075 -0.928848 -0.0736029
v 0.00316313 0.0343171 0.0147412
vn -0.253987 -0.961628 0.10374
v 0.0206772 0.126337 0.0192047
vn 0.48128 0.869456 0.111429
v -0.0779332 0.0860042 0.0368038
vn -0.650582 -0.220702 0.72666
v -0.0649456 0.0347116 0.0326804
vn -0.353419 -0.935451 0.00508879
v -0.0796581 0.0746464 -0.00231003
vn -0.727659 -0.566968 -0.386082
v 0.0141378 0.0791721 -0.030124
vn 0.409215 0.0627957 -0.910275
v -0.0720565 0.156838 -0.0376665
vn -0.981449 -0.00630339 -0.19162
v -0.0746147 0.16511 -0.0381884
vn -0.765116 -0.498051 -0.408097
v 0.0152862 0.116861 -0.0144352
vn 0.323751 0.55465 -0.766517
v -0.0299821 0.0671282 -0.0280648
vn -0.890239 -0.29729 -0.345099
v -0.016705 0.058488 -0.035185
vn -0.0897675 -0.324914 -0.941474
v -0.0751925 0.152397 -0.0145237
vn -0.942555 -0.245 -0.227081
v -0.0397895 0.123172 -0.0102605
vn 0.145759 0.721346 -0.677063
v 0.0155894 0.0555891 -0.0286739
vn 0.239778 -0.296991 -0.924285
v 0.00934345 0.0600799 -0.0300616
vn 0.305655 -0.182996 -0.934392
v 0.0122864 0.0471489 -0.0261456
vn 0.266448 -0.464198 -0.844704
v 0.00452412 0.0682389 -0.0327346
vn 0.233323 -0.103099 -0.966918
v 0.00937444 0.0729602 -0.0330544
vn 0.359569 -0.0525846 -0.931636
v 0.00361562 0.0428314 -0.024669
vn 0.141732 -0.307945 -0.940788
v 0.00271148 0.0539665 -0.0304944
vn 0.163404 -0.268362 -0.949358
v -0.00315591 0.0796981 -0.0368876
vn 0.250927 -0.0716635 -0.96535
v -0.006632 0.045941 -0.0292535
vn 0.00444519 -0.563663 -0.825993
v -0.0063846 0.0560041 -0.0333589
vn 0.104096 -0.295425 -0.949678
v -0.00944627 0.0676087 -0.0364765
vn 0.237057 -0.16489 -0.9574
v -0.0159222 0.0756263 -0.038604
vn 0.0769122 -0.0758539 -0.994148
v -0.0840926 0.112625 0.0444526
vn -0.286905 -0.78571 0.548038
v -0.0728067 0.0676669 0.0243472
vn -0.581355 -0.742898 0.331856
v -0.0714297 0.0710981 0.0326244
vn -0.513698 -0.670626 0.53514
v -0.0692566 0.06248 0.0194856
vn -0.346294 -0.891131 0.293199
v -0.060702 0.0667349 0.0342475
vn -0.263612 -0.77042 0.580485
v -0.0501185 0.0335742 0.00808919
vn 0.220339 -0.907496 0.357633
v -0.0374948 0.0343327 -0.0170062
vn 0.306218 -0.902111 0.304018
v -0.0539452 0.0339998 0.0265559
vn -0.087093 -0.993127 0.0781829
v -0.0410513 0.0339254 -0.00316347
vn 0.257357 -0.965932 -0.0272375
v -0.0376565 0.038337 -0.007059
vn 0.444874 -0.87303 0.199762
v -0.0396861 0.0358581 0.0106664
vn -0.405252 -0.677139 0.61421
f 16//16 46//46 54//54
f 81//81 82//82 83//83
f 18//18 65//65 19//19
f 65//65 68//68 19//19
f 16//16 26//26 46//46
f 102//102 92//92 3//3
f 103//103 15//15 54//54
f 50//50 38//38 96//96
f 15//15 103//103 32//32
f 133//133 117//117 118//118
f 20//20 104//104 78//78
f 26//26 90//90 94//94
f 1//1 55//55 88//88
f 6//6 1//1 13//13
f 33//33 45//45 34//34
f 191//191 192//192 193//193
f 205//205 32//32 103//103
f 155//155 161//161 157//157
f 161//161 185//185 157//157
f 210//210 161//161 155//155
f 16//16 90//90 26//26
f 130//130 54//54 126//126
f 66//66 18//18 64//64
f 122//122 105//105 188//188
f 45//45 44//44 34//34
f 4//4 81//81 168//168
f 125//125 54//54 130//130
f 161//161 107//107 185//185
f 253//253 220//220 245//245
f 210//210 155//155 220//220
f 270//270 271//271 99//99
f 133//133 118//118 211//211
f 203//203 276//276 55//55
f 18//18 66//66 65//65
f 79//79 55//55 1//1
f 281//281 249//249 176//176
f 117//117 291//291 118//118
f 17//17 15//15 32//32
f 176//176 249//249 206//206
f 281//281 265//265 249//249
f 253//253 210//210 220//220
f 295//295 30//30 296//296
f 275//275 259//259 198//198
f 2//2 203//203 79//79
f 275//275 198//198 260//260
f 292//292 260//260 298//298
f 221//221 137//137 51//51
f 301//301 303//303 273//273
f 225//225 127//127 148//148
f 241//241 254//254 269//269
f 227//227 121//121 128//128
f 133//133 211//211 172//172
f 14//14 15//15 17//17
f 225//225 95//95 121//121
f 332//332 334//334 206//206
f 337//337 262//262 338//338
f 254//254 241//241 242//242
f 332//332 342//342 334//334
f 206//206 334//334 176//176
f 96//96 350//350 286//286
f 334//334 355//355 176//176
f 355//355 281//281 176//176
f 71//71 221//221 51//51
f 361//361 52//52 36//36
f 355//355 362//362 281//281
f 242//242 308//308 312//312
f 297//297 254//254 312//312
f 332//332 371//371 342//342
f 362//362 348//348 281//281
f 377//377 371//371 332//332
f 355//355 334//334 342//342
f 257//257 269//269 254//254
f 214//214 348//348 362//362
f 282//282 238//238 272//272
f 371//371 355//355 342//342
f 355//355 382//382 362//362
f 46//46 26//26 93//93
f 282//282 272//272 278//278
f 382//382 214//214 362//362
f 313//313 244//244 270//270
f 50//50 96//96 42//42
f 242//242 244//244 308//308
f 380//380 182//182 183//183
f 140//140 96//96 38//38
f 278//278 272//272 255//255
f 303//303 360//360 273//273
f 136//136 110//110 137//137
f 255//255 138//138 126//126
f 103//103 54//54 125//125
f 389//389 355//355 371//371
f 244//244 279//279 317//317
f 393//393 182//182 380//380
f 377//377 389//389 371//371
f 139//139 278//278 255//255
f 181//181 394//394 377//377
f 389//389 382//382 355//355
f 254//254 242//242 312//312
f 188//188 47//47 51//51
f 182//182 393//393 181//181
f 394//394 389//389 377//377
f 389//389 400//400 382//382
f 242//242 243//243 244//244
f 243//243 279//279 244//244
f 63//63 183//183 182//182
f 398//398 394//394 181//181
f 382//382 400//400 214//214
f 380//380 395//395 393//393
f 398//398 405//405 394//394
f 398//398 181//181 393//393
f 400//400 70//70 214//214
f 15//15 14//14 16//16
f 405//405 389//389 394//394
f 405//405 407//407 389//389
f 64//64 18//18 105//105
f 405//405 409//409 407//407
f 311//311 398//398 393//393
f 396//396 72//72 111//111
f 260//260 198//198 199//199
f 271//271 282//282 99//99
f 352//352 311//311 393//393
f 409//409 405//405 398//398
f 318//318 400//400 389//389
f 318//318 410//410 400//400
f 410//410 70//70 400//400
f 114//114 232//232 149//149
f 99//99 282//282 278//278
f 168//168 277//277 4//4
f 311//311 409//409 398//398
f 407//407 318//318 389//389
f 113//113 103//103 125//125
f 311//311 184//184 409//409
f 410//410 26//26 70//70
f 189//189 352//352 356//356
f 142//142 40//40 33//33
f 414//414 321//321 315//315
f 384//384 352//352 189//189
f 93//93 26//26 410//410
f 318//318 152//152 410//410
f 44//44 89//89 34//34
f 233//233 212//212 277//277
f 152//152 93//93 410//410
f 297//297 384//384 189//189
f 103//103 113//113 100//100
f 101//101 103//103 100//100
f 189//189 257//257 297//297
f 62//62 183//183 63//63
f 141//141 262//262 61//61
f 399//399 420//420 388//388
f 317//317 270//270 244//244
f 134//134 261//261 360//360
f 244//244 313//313 308//308
f 205//205 103//103 101//101
f 122//122 137//137 110//110
f 268//268 270//270 99//99
f 313//313 270//270 268//268
f 360//360 261//261 273//273
f 297//297 209//209 384//384
f 106//106 49//49 127//127
f 86//86 268//268 363//363
f 126//126 93//93 152//152
f 255//255 152//152 151//151
f 126//126 46//46 93//93
f 255//255 272//272 138//138
f 209//209 308//308 86//86
f 126//126 152//152 255//255
f 86//86 313//313 268//268
f 51//51 137//137 122//122
f 297//297 312//312 209//209
f 312//312 308//308 209//209
f 308//308 313//313 86//86
f 241//241 240//240 242//242
f 139//139 255//255 151//151
f 186//186 259//259 402//402
f 360//360 314//314 134//134
f 99//99 363//363 268//268
f 257//257 254//254 297//297
f 431//431 193//193 432//432
f 305//305 286//286 429//429
f 437//437 434//434 191//191
f 109//109 272//272 238//238
f 284//284 161//161 210//210
f 227//227 195//195 248//248
f 284//284 210//210 253//253
f 28//28 378//378 10//10
f 441//441 253//253 440//440
f 253//253 441//441 284//284
f 150//150 172//172 211//211
f 235//235 314//314 438//438
f 281//281 441//441 440//440
f 441//441 442//442 284//284
f 183//183 361//361 380//380
f 265//265 281//281 440//440
f 442//442 53//53 284//284
f 261//261 433//433 430//430
f 53//53 107//107 161//161
f 284//284 53//53 161//161
f 427//427 431//431 351//351
f 437//437 316//316 434//434
f 441//441 444//444 442//442
f 423//423 361//361 36//36
f 272//272 130//130 138//138
f 41//41 50//50 42//42
f 281//281 348//348 441//441
f 441//441 348//348 444//444
f 444//444 53//53 442//442
f 423//423 391//391 361//361
f 235//235 438//438 397//397
f 140//140 107//107 53//53
f 107//107 140//140 38//38
f 391//391 380//380 361//361
f 319//319 286//286 305//305
f 305//305 404//404 148//148
f 53//53 173//173 140//140
f 192//192 191//191 279//279
f 427//427 193//193 431//431
f 314//314 235//235 435//435
f 269//269 257//257 351//351
f 273//273 261//261 428//428
f 444//444 328//328 53//53
f 59//59 84//84 320//320
f 335//335 444//444 348//348
f 395//395 380//380 391//391
f 171//171 292//292 298//298
f 328//328 444//444 335//335
f 30//30 257//257 189//189
f 319//319 59//59 320//320
f 335//335 348//348 214//214
f 243//243 192//192 279//279
f 96//96 286//286 42//42
f 432//432 241//241 269//269
f 387//387 60//60 59//59
f 133//133 200//200 117//117
f 143//143 434//434 238//238
f 370//370 115//115 178//178
f 240//240 243//243 242//242
f 434//434 316//316 238//238
f 430//430 437//437 191//191
f 279//279 191//191 143//143
f 397//397 438//438 303//303
f 195//195 188//188 248//248
f 320//320 84//84 396//396
f 239//239 47//47 195//195
f 319//319 387//387 59//59
f 397//397 303//303 301//301
f 269//269 431//431 432//432
f 317//317 271//271 270//270
f 225//225 404//404 429//429
f 148//148 404//404 225//225
f 108//108 387//387 49//49
f 438//438 314//314 360//360
f 109//109 130//130 272//272
f 437//437 433//433 316//316
f 199//199 250//250 260//260
f 95//95 96//96 23//23
f 303//303 438//438 360//360
f 320//320 396//396 286//286
f 15//15 16//16 54//54
f 259//259 186//186 198//198
f 143//143 317//317 279//279
f 235//235 39//39 435//435
f 430//430 191//191 193//193
f 271//271 143//143 282//282
f 143//143 271//271 317//317
f 193//193 243//243 240//240
f 30//30 403//403 257//257
f 432//432 193//193 240//240
f 23//23 128//128 95//95
f 430//430 433//433 437//437
f 39//39 235//235 186//186
f 111//111 42//42 286//286
f 298//298 260//260 250//250
f 392//392 427//427 439//439
f 433//433 211//211 316//316
f 273//273 428//428 427//427
f 418//418 211//211 433//433
f 95//95 350//350 96//96
f 150//150 418//418 261//261
f 238//238 282//282 143//143
f 37//37 44//44 3//3
f 439//439 427//427 351//351
f 429//429 286//286 350//350
f 418//418 433//433 261//261
f 238//238 131//131 124//124
f 427//427 428//428 193//193
f 316//316 131//131 238//238
f 319//319 320//320 286//286
f 225//225 350//350 95//95
f 314//314 435//435 134//134
f 191//191 434//434 143//143
f 261//261 430//430 428//428
f 432//432 240//240 241//241
f 273//273 427//427 392//392
f 48//48 47//47 239//239
f 193//193 192//192 243//243
f 351//351 431//431 269//269
f 404//404 305//305 429//429
f 238//238 124//124 109//109
f 225//225 429//429 350//350
f 84//84 72//72 396//396
f 387//387 319//319 305//305
f 430//430 193//193 428//428
f 27//27 75//75 3//3
f 324//324 386//386 460//460
f 128//128 23//23 179//179
f 55//55 276//276 88//88
f 88//88 276//276 21//21
f 6//6 13//13 12//12
f 129//129 133//133 172//172
f 258//258 436//436 449//449
f 77//77 67//67 188//188
f 108//108 49//49 106//106
f 2//2 1//1 74//74
f 94//94 335//335 214//214
f 162//162 200//200 315//315
f 25//25 74//74 43//43
f 321//321 162//162 315//315
f 1//1 6//6 43//43
f 467//467 129//129 172//172
f 310//310 464//464 450//450
f 168//168 233//233 277//277
f 322//322 321//321 372//372
f 49//49 387//387 305//305
f 413//413 293//293 462//462
f 401//401 364//364 294//294
f 294//294 364//364 463//463
f 164//164 461//461 91//91
f 200//200 129//129 315//315
f 163//163 56//56 262//262
f 1//1 88//88 13//13
f 293//293 236//236 339//339
f 248//248 188//188 135//135
f 364//364 365//365 372//372
f 129//129 200//200 133//133
f 462//462 293//293 339//339
f 188//188 105//105 77//77
f 322//322 162//162 321//321
f 237//237 64//64 110//110
f 372//372 321//321 364//364
f 414//414 315//315 129//129
f 364//364 414//414 463//463
f 122//122 64//64 105//105
f 226//226 2//2 102//102
f 294//294 463//463 236//236
f 293//293 294//294 236//236
f 462//462 339//339 464//464
f 96//96 140//140 173//173
f 147//147 246//246 316//316
f 128//128 121//121 95//95
f 364//364 321//321 414//414
f 150//150 211//211 418//418
f 211//211 147//147 316//316
f 118//118 147//147 211//211
f 2//2 79//79 1//1
f 23//23 173//173 22//22
f 23//23 96//96 173//173
f 122//122 110//110 64//64
f 397//397 199//199 235//235
f 235//235 198//198 186//186
f 229//229 199//199 397//397
f 229//229 250//250 199//199
f 199//199 198//198 235//235
f 78//78 185//185 107//107
f 132//132 435//435 39//39
f 257//257 403//403 258//258
f 19//19 67//67 77//77
f 148//148 127//127 49//49
f 402//402 132//132 39//39
f 249//249 265//265 300//300
f 132//132 150//150 134//134
f 163//163 63//63 56//56
f 467//467 132//132 402//402
f 150//150 261//261 134//134
f 172//172 150//150 132//132
f 222//222 24//24 29//29
f 74//74 1//1 43//43
f 172//172 132//132 467//467
f 25//25 92//92 74//74
f 24//24 21//21 20//20
f 182//182 280//280 63//63
f 202//202 62//62 159//159
f 19//19 29//29 67//67
f 186//186 402//402 39//39
f 66//66 64//64 73//73
f 72//72 41//41 111//111
f 173//173 53//53 328//328
f 41//41 42//42 111//111
f 363//363 422//422 86//86
f 57//57 20//20 78//78
f 24//24 20//20 57//57
f 213//213 217//217 216//216
f 29//29 31//31 67//67
f 408//408 90//90 14//14
f 29//29 24//24 31//31
f 90//90 408//408 22//22
f 90//90 22//22 94//94
f 105//105 18//18 19//19
f 24//24 222//222 21//21
f 16//16 14//14 90//90
f 67//67 31//31 135//135
f 23//23 408//408 179//179
f 338//338 262//262 141//141
f 408//408 23//23 22//22
f 126//126 138//138 130//130
f 57//57 78//78 38//38
f 50//50 57//57 38//38
f 31//31 24//24 50//50
f 304//304 72//72 80//80
f 135//135 31//31 69//69
f 179//179 408//408 14//14
f 20//20 21//21 104//104
f 65//65 91//91 68//68
f 78//78 104//104 185//185
f 316//316 246//246 131//131
f 396//396 111//111 286//286
f 116//116 21//21 276//276
f 229//229 251//251 250//250
f 154//154 220//220 155//155
f 44//44 27//27 3//3
f 22//22 335//335 94//94
f 179//179 14//14 175//175
f 118//118 246//246 147//147
f 19//19 68//68 29//29
f 69//69 31//31 50//50
f 214//214 70//70 94//94
f 222//222 12//12 21//21
f 151//151 406//406 139//139
f 406//406 363//363 99//99
f 328//328 335//335 22//22
f 124//124 131//131 246//246
f 419//419 9//9 10//10
f 337//337 383//383 262//262
f 291//291 246//246 118//118
f 153//153 76//76 66//66
f 50//50 24//24 57//57
f 66//66 164//164 91//91
f 3//3 11//11 37//37
f 61//61 325//325 141//141
f 173//173 328//328 22//22
f 78//78 107//107 38//38
f 158//158 106//106 127//127
f 345//345 226//226 302//302
f 291//291 100//100 246//246
f 476//476 124//124 246//246
f 278//278 139//139 99//99
f 11//11 92//92 25//25
f 446//446 100//100 291//291
f 246//246 100//100 476//476
f 122//122 188//188 51//51
f 44//44 37//37 89//89
f 54//54 46//46 126//126
f 66//66 91//91 65//65
f 26//26 94//94 70//70
f 139//139 406//406 99//99
f 130//130 109//109 124//124
f 476//476 113//113 124//124
f 174//174 11//11 25//25
f 113//113 476//476 100//100
f 113//113 125//125 124//124
f 124//124 125//125 130//130
f 182//182 181//181 123//123
f 36//36 62//62 421//421
f 56//56 280//280 447//447
f 184//184 87//87 409//409
f 340//340 252//252 283//283
f 87//87 422//422 409//409
f 232//232 296//296 395//395
f 422//422 363//363 407//407
f 406//406 318//318 407//407
f 385//385 448//448 358//358
f 304//304 41//41 72//72
f 68//68 91//91 170//170
f 49//49 305//305 148//148
f 406//406 151//151 318//318
f 157//157 156//156 155//155
f 311//311 416//416 184//184
f 352//352 384//384 311//311
f 384//384 416//416 311//311
f 232//232 395//395 391//391
f 182//182 123//123 280//280
f 52//52 62//62 36//36
f 420//420 112//112 388//388
f 68//68 170//170 222//222
f 357//357 228//228 158//158
f 136//136 153//153 73//73
f 30//30 189//189 296//296
f 86//86 87//87 416//416
f 155//155 156//156 154//154
f 189//189 356//356 395//395
f 157//157 104//104 116//116
f 206//206 477//477 207//207
f 207//207 477//477 344//344
f 154//154 156//156 345//345
f 164//164 66//66 76//76
f 157//157 185//185 104//104
f 343//343 388//388 367//367
f 77//77 105//105 19//19
f 157//157 276//276 156//156
f 477//477 206//206 300//300
f 52//52 183//183 62//62
f 300//300 206//206 249//249
f 422//422 407//407 409//409
f 478//478 421//421 202//202
f 215//215 177//177 340//340
f 383//383 337//337 381//381
f 384//384 209//209 416//416
f 146//146 201//201 44//44
f 416//416 87//87 184//184
f 233//233 28//28 212//212
f 356//356 352//352 395//395
f 233//233 378//378 28//28
f 201//201 75//75 27//27
f 63//63 280//280 56//56
f 158//158 228//228 266//266
f 296//296 189//189 395//395
f 104//104 21//21 116//116
f 407//407 363//363 406//406
f 378//378 7//7 10//10
f 40//40 344//344 146//146
f 151//151 152//152 318//318
f 80//80 84//84 59//59
f 166//166 381//381 337//337
f 162//162 322//322 366//366
f 165//165 163//163 262//262
f 383//383 165//165 262//262
f 343//343 399//399 388//388
f 344//344 477//477 146//146
f 381//381 412//412 383//383
f 86//86 422//422 87//87
f 177//177 196//196 194//194
f 146//146 300//300 201//201
f 393//393 395//395 352//352
f 156//156 203//203 226//226
f 69//69 50//50 41//41
f 477//477 300//300 146//146
f 156//156 276//276 203//203
f 226//226 345//345 156//156
f 157//157 116//116 276//276
f 209//209 86//86 416//416
f 412//412 165//165 383//383
f 262//262 56//56 61//61
f 364//364 401//401 365//365
f 28//28 10//10 9//9
f 415//415 327//327 223//223
f 167//167 81//81 83//83
f 347//347 76//76 153//153
f 221//221 481//481 136//136
f 481//481 347//347 136//136
f 481//481 482//482 347//347
f 482//482 76//76 347//347
f 76//76 461//461 164//164
f 482//482 461//461 76//76
f 461//461 466//466 91//91
f 48//48 349//349 71//71
f 483//483 375//375 452//452
f 349//349 481//481 71//71
f 202//202 421//421 62//62
f 453//453 484//484 385//385
f 28//28 9//9 385//385
f 481//481 486//486 482//482
f 486//486 461//461 482//482
f 484//484 212//212 385//385
f 486//486 466//466 461//461
f 145//145 366//366 326//326
f 368//368 112//112 420//420
f 453//453 5//5 484//484
f 283//283 252//252 373//373
f 224//224 5//5 453//453
f 212//212 28//28 385//385
f 67//67 135//135 188//188
f 146//146 44//44 45//45
f 486//486 481//481 349//349
f 452//452 375//375 415//415
f 102//102 2//2 74//74
f 484//484 277//277 212//212
f 33//33 40//40 45//45
f 112//112 5//5 224//224
f 62//62 165//165 159//159
f 5//5 277//277 484//484
f 79//79 203//203 55//55
f 146//146 45//45 40//40
f 127//127 121//121 248//248
f 466//466 170//170 91//91
f 420//420 82//82 368//368
f 119//119 114//114 274//274
f 479//479 180//180 215//215
f 381//381 166//166 97//97
f 81//81 368//368 82//82
f 4//4 5//5 112//112
f 302//302 226//226 102//102
f 63//63 163//163 165//165
f 239//239 349//349 48//48
f 88//88 21//21 12//12
f 486//486 170//170 466//466
f 81//81 112//112 368//368
f 4//4 277//277 5//5
f 295//295 232//232 114//114
f 88//88 12//12 13//13
f 205//205 451//451 468//468
f 304//304 80//80 228//228
f 102//102 74//74 92//92
f 446//446 451//451 101//101
f 369//369 419//419 288//288
f 469//469 216//216 190//190
f 239//239 219//219 349//349
f 222//222 29//29 68//68
f 219//219 486//486 349//349
f 101//101 100//100 446//446
f 226//226 203//203 2//2
f 483//483 452//452 451//451
f 287//287 7//7 472//472
f 304//304 228//228 454//454
f 62//62 63//63 165//165
f 175//175 455//455 472//472
f 373//373 325//325 283//283
f 69//69 304//304 454//454
f 373//373 338//338 325//325
f 219//219 12//12 486//486
f 486//486 12//12 170//170
f 167//167 338//338 373//373
f 89//89 216//216 469//469
f 222//222 170//170 12//12
f 479//479 34//34 469//469
f 12//12 219//219 354//354
f 69//69 41//41 304//304
f 213//213 216//216 37//37
f 174//174 43//43 208//208
f 84//84 80//80 72//72
f 338//338 167//167 166//166
f 338//338 141//141 325//325
f 89//89 37//37 216//216
f 73//73 153//153 66//66
f 37//37 11//11 213//213
f 6//6 12//12 354//354
f 469//469 34//34 89//89
f 337//337 338//338 166//166
f 215//215 33//33 479//479
f 33//33 34//34 479//479
f 213//213 11//11 174//174
f 6//6 354//354 43//43
f 25//25 43//43 174//174
f 456//456 483//483 446//446
f 287//287 288//288 7//7
f 443//443 263//263 450//450
f 343//343 450//450 399//399
f 14//14 17//17 455//455
f 455//455 468//468 287//287
f 145//145 35//35 366//366
f 267//267 200//200 162//162
f 456//456 425//425 247//247
f 374//374 247//247 35//35
f 247//247 200//200 267//267
f 425//425 200//200 247//247
f 375//375 327//327 415//415
f 204//204 326//326 289//289
f 117//117 456//456 291//291
f 483//483 456//456 374//374
f 136//136 237//237 110//110
f 237//237 136//136 73//73
f 73//73 64//64 237//237
f 112//112 81//81 4//4
f 417//417 289//289 290//290
f 47//47 71//71 51//51
f 425//425 117//117 200//200
f 467//467 424//424 129//129
f 299//299 114//114 149//149
f 259//259 411//411 402//402
f 291//291 456//456 446//446
f 372//372 365//365 376//376
f 121//121 227//227 248//248
f 247//247 374//374 456//456
f 326//326 329//329 289//289
f 289//289 169//169 290//290
f 223//223 288//288 287//287
f 448//448 9//9 419//419
f 465//465 448//448 290//290
f 480//480 326//326 366//366
f 454//454 135//135 69//69
f 224//224 367//367 388//388
f 472//472 455//455 287//287
f 263//263 231//231 264//264
f 369//369 288//288 223//223
f 411//411 259//259 359//359
f 259//259 275//275 359//359
f 419//419 417//417 290//290
f 424//424 414//414 129//129
f 258//258 439//439 351//351
f 112//112 224//224 388//388
f 414//414 424//424 463//463
f 341//341 370//370 457//457
f 329//329 307//307 289//289
f 128//128 333//333 227//227
f 167//167 353//353 166//166
f 204//204 145//145 326//326
f 419//419 290//290 448//448
f 424//424 467//467 411//411
f 333//333 457//457 370//370
f 132//132 134//134 435//435
f 390//390 8//8 457//457
f 17//17 468//468 455//455
f 468//468 415//415 287//287
f 128//128 179//179 333//333
f 456//456 117//117 425//425
f 451//451 446//446 483//483
f 179//179 487//487 333//333
f 333//333 487//487 457//457
f 169//169 465//465 290//290
f 487//487 390//390 457//457
f 417//417 419//419 369//369
f 14//14 455//455 175//175
f 415//415 223//223 287//287
f 32//32 205//205 468//468
f 402//402 411//411 467//467
f 101//101 451//451 205//205
f 204//204 289//289 417//417
f 204//204 374//374 35//35
f 374//374 375//375 483//483
f 468//468 451//451 452//452
f 487//487 175//175 390//390
f 274//274 114//114 299//299
f 195//195 47//47 188//188
f 179//179 175//175 487//487
f 307//307 169//169 289//289
f 17//17 32//32 468//468
f 175//175 472//472 390//390
f 359//359 424//424 411//411
f 80//80 60//60 228//228
f 60//60 471//471 228//228
f 472//472 8//8 390//390
f 267//267 366//366 35//35
f 7//7 8//8 472//472
f 468//468 452//452 415//415
f 60//60 144//144 471//471
f 218//218 178//178 115//115
f 52//52 361//361 183//183
f 167//167 83//83 353//353
f 285//285 359//359 275//275
f 329//329 326//326 480//480
f 218//218 354//354 219//219
f 190//190 160//160 197//197
f 168//168 234//234 233//233
f 292//292 285//285 275//275
f 81//81 167//167 373//373
f 190//190 197//197 180//180
f 454//454 357//357 248//248
f 196//196 187//187 379//379
f 292//292 463//463 285//285
f 218//218 219//219 195//195
f 310//310 450//450 343//343
f 424//424 359//359 285//285
f 463//463 424//424 285//285
f 327//327 204//204 417//417
f 208//208 218//218 217//217
f 208//208 354//354 218//218
f 370//370 341//341 115//115
f 171//171 463//463 292//292
f 178//178 227//227 370//370
f 180//180 197//197 196//196
f 180//180 196//196 177//177
f 260//260 292//292 275//275
f 160//160 217//217 115//115
f 234//234 168//168 81//81
f 357//357 158//158 127//127
f 195//195 219//219 239//239
f 35//35 145//145 204//204
f 197//197 160//160 187//187
f 252//252 194//194 233//233
f 208//208 43//43 354//354
f 196//196 379//379 378//378
f 217//217 218//218 115//115
f 162//162 366//366 267//267
f 171//171 236//236 463//463
f 85//85 346//346 264//264
f 373//373 252//252 234//234
f 401//401 294//294 293//293
f 180//180 469//469 190//190
f 160//160 190//190 217//217
f 372//372 376//376 322//322
f 376//376 480//480 322//322
f 480//480 366//366 322//322
f 413//413 401//401 293//293
f 252//252 233//233 234//234
f 401//401 488//488 365//365
f 365//365 489//489 376//376
f 370//370 227//227 333//333
f 353//353 97//97 166//166
f 413//413 488//488 401//401
f 194//194 196//196 233//233
f 340//340 177//177 252//252
f 488//488 489//489 365//365
f 3//3 75//75 102//102
f 462//462 490//490 413//413
f 233//233 196//196 378//378
f 413//413 490//490 488//488
f 60//60 387//387 108//108
f 247//247 267//267 35//35
f 453//453 385//385 358//358
f 489//489 491//491 376//376
f 491//491 492//492 376//376
f 492//492 480//480 376//376
f 8//8 379//379 341//341
f 231//231 85//85 264//264
f 462//462 493//493 490//490
f 327//327 375//375 374//374
f 248//248 357//357 127//127
f 492//492 329//329 480//480
f 347//347 153//153 136//136
f 377//377 123//123 181//181
f 490//490 494//494 488//488
f 494//494 489//489 488//488
f 204//204 327//327 374//374
f 341//341 457//457 8//8
f 464//464 493//493 462//462
f 491//491 495//495 492//492
f 495//495 329//329 492//492
f 197//197 187//187 196//196
f 494//494 491//491 489//489
f 479//479 469//469 180//180
f 493//493 496//496 490//490
f 490//490 497//497 494//494
f 464//464 309//309 493//493
f 490//490 496//496 497//497
f 494//494 497//497 491//491
f 307//307 329//329 495//495
f 385//385 9//9 448//448
f 135//135 454//454 248//248
f 498//498 495//495 491//491
f 169//169 307//307 495//495
f 187//187 160//160 341//341
f 417//417 223//223 327//327
f 178//178 218//218 195//195
f 160//160 115//115 341//341
f 236//236 58//58 339//339
f 373//373 234//234 81//81
f 493//493 309//309 496//496
f 497//497 498//498 491//491
f 498//498 499//499 495//495
f 97//97 353//353 98//98
f 201//201 27//27 44//44
f 417//417 369//369 223//223
f 85//85 119//119 346//346
f 499//499 169//169 495//495
f 353//353 83//83 98//98
f 485//485 498//498 497//497
f 378//378 8//8 7//7
f 177//177 194//194 252//252
f 471//471 144//144 266//266
f 288//288 10//10 7//7
f 485//485 497//497 496//496
f 481//481 221//221 71//71
f 120//120 114//114 119//119
f 144//144 108//108 266//266
f 499//499 465//465 169//169
f 485//485 499//499 498//498
f 215//215 180//180 177//177
f 213//213 174//174 217//217
f 367//367 496//496 309//309
f 358//358 499//499 485//485
f 174//174 208//208 217//217
f 59//59 60//60 80//80
f 367//367 485//485 496//496
f 357//357 454//454 228//228
f 310//310 309//309 464//464
f 178//178 195//195 227//227
f 266//266 108//108 106//106
f 310//310 367//367 309//309
f 378//378 379//379 8//8
f 221//221 136//136 137//137
f 412//412 159//159 165//165
f 310//310 343//343 367//367
f 367//367 453//453 485//485
f 358//358 465//465 499//499
f 379//379 187//187 341//341
f 471//471 266//266 228//228
f 453//453 358//358 485//485
f 419//419 10//10 288//288
f 224//224 453//453 367//367
f 448//448 465//465 358//358
f 158//158 266//266 106//106
f 474//474 230//230 331//331
f 324//324 323//323 85//85
f 323//323 475//475 336//336
f 397//397 301//301 229//229
f 48//48 71//71 47//47
f 236//236 251//251 474//474
f 439//439 449//449 330//330
f 11//11 3//3 92//92
f 445//445 295//295 114//114
f 386//386 231//231 443//443
f 339//339 386//386 443//443
f 323//323 306//306 85//85
f 295//295 403//403 30//30
f 436//436 258//258 403//403
f 436//436 295//295 445//445
f 386//386 324//324 231//231
f 436//436 459//459 449//449
f 102//102 75//75 302//302
f 298//298 250//250 251//251
f 75//75 500//500 302//302
f 500//500 345//345 302//302
f 464//464 443//443 450//450
f 436//436 445//445 459//459
f 298//298 236//236 171//171
f 142//142 33//33 215//215
f 201//201 300//300 75//75
f 298//298 251//251 236//236
f 306//306 120//120 119//119
f 263//263 443//443 231//231
f 251//251 230//230 474//474
f 215//215 473//473 142//142
f 458//458 120//120 306//306
f 392//392 439//439 230//230
f 142//142 501//501 40//40
f 265//265 75//75 300//300
f 265//265 245//245 75//75
f 245//245 500//500 75//75
f 439//439 258//258 449//449
f 336//336 306//306 323//323
f 501//501 344//344 40//40
f 245//245 154//154 500//500
f 154//154 245//245 220//220
f 58//58 426//426 339//339
f 225//225 121//121 127//127
f 345//345 500//500 154//154
f 142//142 473//473 501//501
f 501//501 502//502 344//344
f 340//340 61//61 473//473
f 473//473 503//503 501//501
f 324//324 85//85 231//231
f 108//108 144//144 60//60
f 98//98 470//470 97//97
f 256//256 458//458 336//336
f 265//265 440//440 245//245
f 473//473 61//61 503//503
f 207//207 344//344 502//502
f 330//330 336//336 475//475
f 245//245 440//440 253//253
f 331//331 330//330 475//475
f 283//283 325//325 340//340
f 340//340 325//325 61//61
f 215//215 340//340 473//473
f 386//386 426//426 460//460
f 258//258 351//351 257//257
f 478//478 159//159 412//412
f 502//502 332//332 207//207
f 83//83 470//470 98//98
f 421//421 423//423 36//36
f 230//230 439//439 330//330
f 412//412 381//381 97//97
f 229//229 301//301 230//230
f 470//470 412//412 97//97
f 61//61 447//447 503//503
f 503//503 504//504 501//501
f 504//504 502//502 501//501
f 502//502 504//504 332//332
f 332//332 206//206 207//207
f 82//82 470//470 83//83
f 229//229 230//230 251//251
f 447//447 504//504 503//503
f 190//190 216//216 217//217
f 232//232 295//295 296//296
f 202//202 159//159 478//478
f 339//339 443//443 464//464
f 460//460 323//323 324//324
f 399//399 82//82 420//420
f 460//460 475//475 323//323
f 82//82 505//505 470//470
f 399//399 506//506 82//82
f 507//507 478//478 412//412
f 505//505 507//507 470//470
f 280//280 504//504 447//447
f 504//504 123//123 332//332
f 508//508 82//82 506//506
f 507//507 412//412 470//470
f 230//230 330//330 331//331
f 263//263 506//506 399//399
f 423//423 421//421 478//478
f 377//377 332//332 123//123
f 504//504 280//280 123//123
f 509//509 508//508 506//506
f 508//508 505//505 82//82
f 423//423 478//478 507//507
f 458//458 306//306 336//336
f 450//450 263//263 399//399
f 301//301 392//392 230//230
f 274//274 510//510 505//505
f 264//264 509//509 506//506
f 264//264 506//506 263//263
f 274//274 505//505 508//508
f 306//306 119//119 85//85
f 403//403 295//295 436//436
f 339//339 426//426 386//386
f 507//507 232//232 423//423
f 346//346 509//509 264//264
f 330//330 256//256 336//336
f 301//301 273//273 392//392
f 232//232 507//507 149//149
f 391//391 423//423 232//232
f 474//474 58//58 236//236
f 426//426 475//475 460//460
f 274//274 299//299 510//510
