# Created by Open3D 
# object name: horse_low_poly
# number of vertices: 502
# number of triangles: 1000
v -0.001685 0.0353835 -0.076366
vn 0.514349 -0.71142 -0.478881
v -0.008373 0.0394945 -0.0761435
vn -0.703588 -0.0856548 -0.705427
v 0.001107 0.0425665 -0.076036
vn 0.947135 0.304697 -0.100478
v -0.00267563 0.0455739 -0.0758765
vn 0.113211 0.939115 -0.324418
v -0.00650523 0.0353738 -0.0728297
vn -0.643896 -0.76245 0.0637764
v -0.008317 -0.0820575 -0.076206
vn -0.705548 0.24276 -0.665785
v 0.00109975 -0.0844777 -0.075509
vn 0.486527 -0.307375 -0.81781
v -0.00625397 0.0436019 -0.0735157
vn -0.587654 0.720894 0.36739
v -0.00396175 -0.0883902 -0.074245
vn -0.0360965 -0.993817 -0.104995
v -0.00264181 -0.0776491 -0.0752481
vn 0.310451 0.946407 -0.0890727
v 0.026219 0.015357 -0.0756655
vn -0.957073 -0.137215 -0.255311
v 0.0302488 0.0114993 -0.075827
vn 0.126137 -0.828683 -0.545321
v 0.00158325 -0.0823837 -0.0735315
vn 0.977598 0.207717 -0.0340141
v 0.0268194 0.020759 -0.075123
vn -0.635434 0.768416 0.0758942
v 0.0329795 0.0210332 -0.075133
vn 0.727968 0.657818 -0.193229
v 0.0353568 0.0165991 -0.075062
vn 0.815199 0.0867414 -0.572648
v -0.0069625 -0.0872457 -0.0726615
vn -0.89904 -0.428314 0.0909645
v -0.006801 0.0380156 -0.0688334
vn -0.930274 0.151447 0.334147
v 0.0271754 0.0116555 -0.0728066
vn -0.652647 -0.750466 -0.104172
v 0.0310791 0.0211324 -0.0724614
vn 0.131471 0.842906 0.521753
v -0.00633811 -0.0797313 -0.0711436
vn -0.670347 0.661499 0.336235
v 0.0300058 -0.0582064 -0.0741114
vn -0.662351 0.643212 -0.384148
v 0.0292858 -0.0656542 -0.0748595
vn -0.582712 -0.486886 -0.650683
v 0.0364873 -0.0581513 -0.0742782
vn 0.492924 0.82663 -0.271493
v 0.035556 -0.0678695 -0.074727
vn 0.518622 -0.818568 -0.246934
v 0.0383175 -0.061862 -0.0740804
vn 0.964097 -0.00807261 -0.265426
v 0.034453 0.0124487 -0.0694262
vn 0.913355 -0.399339 0.0794451
v -0.0029695 0.043063 -0.0706755
vn 0.238949 0.825586 0.511186
v 0.0297137 -0.0667467 -0.0689446
vn -0.881294 -0.47223 -0.0179149
v 2.6e-05 -0.0798784 -0.071211
vn 0.458668 0.807611 0.370658
v -0.0032673 0.0340161 -0.0693488
vn -0.0989722 -0.971153 -0.216946
v 0.0344396 -0.0683191 -0.0667087
vn 0.0716274 -0.977839 -0.196725
v 0.000845687 -0.0869161 -0.0722739
vn 0.748429 -0.662598 0.0285869
v 0.0300396 -0.0599854 -0.0696614
vn -0.554397 0.709576 0.434908
v 0.0283213 -0.06268 -0.0699052
vn -0.905133 0.341641 0.253014
v 0.0359069 -0.0630725 -0.0655253
vn 0.607236 0.707836 0.360877
v 0.0313371 0.0107679 -0.0692646
vn 0.145243 -0.98869 0.0373675
v 0.0340609 -0.0602524 -0.0684064
vn 0.165711 0.830886 0.531196
v 0.000496906 0.0350764 -0.0681684
vn 0.811472 -0.552069 -0.191657
v 0.037632 -0.0662845 -0.070029
vn 0.911208 -0.410588 0.0334262
v 0.0272297 0.0128969 -0.0681425
vn -0.77113 -0.630724 -0.0868696
v -0.00615331 -0.0840803 -0.0657078
vn -0.994461 -0.0960618 0.042654
v -3.58126e-05 -0.086907 -0.0649282
vn 0.890213 -0.426288 -0.160621
v 0.0290384 0.0162946 -0.0653788
vn -0.481411 0.87273 0.0811463
v 0.0334589 0.0150789 -0.0662451
vn 0.810075 0.562209 0.166429
v 0.000271937 0.0382613 -0.0665289
vn 0.866504 0.471428 0.164093
v -0.00369204 0.0387909 -0.0652907
vn -0.321873 0.856785 0.402886
v 0.0363428 -0.0660828 -0.0655791
vn 0.984796 -0.084826 -0.151598
v -0.0002775 -0.0827444 -0.0640629
vn 0.863417 0.50357 -0.0304884
v -0.00391164 -0.0818975 -0.0639043
vn -0.282123 0.954544 0.0961892
v -0.003694 -0.0911885 -0.061049
vn -0.293587 -0.866644 -0.403403
v 0.0263341 0.0128356 -0.0592663
vn -0.995709 -0.0913014 -0.0151163
v -0.00525888 0.031258 -0.0628615
vn -0.798902 -0.525539 -0.292512
v 0.029535 0.00840525 -0.0618337
vn -0.236531 -0.902988 -0.358701
v -0.00276558 0.0288325 -0.0606003
vn -0.171697 -0.922807 -0.344889
v 0.0312685 -0.0712518 -0.0621511
vn -0.396717 -0.755029 -0.52206
v -0.00551624 -0.0835786 -0.0538838
vn -0.870359 0.491733 -0.0259547
v 0.0341459 0.0117505 -0.0593788
vn 0.988585 0.128348 0.078906
v -9.33984e-05 0.0355283 -0.0559171
vn 0.698253 0.701969 0.140295
v 0.034775 -0.0719925 -0.061523
vn 0.385808 -0.912877 -0.133442
v 0.032722 0.0080875 -0.058749
vn 0.819132 -0.552396 0.154538
v 0.00152384 0.0325141 -0.0602182
vn 0.980916 -0.183048 0.0655592
v 0.0320979 -0.0638989 -0.0543671
vn -0.287351 0.955049 -0.0728693
v -0.00285148 0.0357432 -0.0547428
vn -0.576427 0.773185 0.264419
v 0.001836 -0.0882345 -0.057596
vn 0.923583 -0.377268 0.0682839
v -0.00475913 0.0326362 -0.0570486
vn -0.982236 0.0445286 0.182291
v -0.0004965 0.0292148 -0.059629
vn 0.725093 -0.685717 -0.0634965
v 0.029176 -0.0695349 -0.0594982
vn -0.953078 -0.302115 0.0192056
v -0.00159781 -0.0913266 -0.0580206
vn 0.0359345 -0.987327 0.15458
v 2.83593e-05 -0.0827651 -0.0500254
vn 0.82851 0.559696 -0.0176193
v -0.00456963 -0.0894013 -0.0564221
vn -0.793118 -0.552394 0.256564
v 0.0363325 -0.0651791 -0.0545118
vn 0.875931 0.479423 0.0538331
v 0.030468 0.0074975 -0.056801
vn -0.0184217 -0.976706 0.213792
v 0.0267371 0.0185374 -0.048375
vn -0.616938 0.695574 -0.368191
v 0.0371468 -0.0694577 -0.0571766
vn 0.932118 -0.348459 0.0986501
v 0.0283496 0.0116663 -0.0465334
vn -0.474191 -0.853648 0.215471
v 0.0342766 -0.0709418 -0.0514172
vn 0.239476 -0.926657 0.289755
v 0.0313819 -0.0693326 -0.0479874
vn -0.734994 -0.652937 0.182912
v -0.006459 0.0285155 -0.041277
vn -0.969892 -0.243536 -0.000150252
v 0.0262299 0.0136742 -0.0486647
vn -0.927469 -0.372382 -0.033668
v 0.0312037 0.0192367 -0.0423133
vn 0.945549 0.303698 -0.11707
v 0.000895734 0.027691 -0.0438998
vn 0.883763 -0.422005 -0.202175
v -0.0026582 0.0257012 -0.0460613
vn 0.0319307 -0.965267 -0.259306
v -0.00157739 0.0351217 -0.042044
vn -0.00208119 0.998662 0.0516668
v 0.0307186 -0.0615513 -0.043794
vn -0.581479 0.756735 -0.298721
v -0.00505791 -0.084296 -0.0461785
vn -0.959529 -0.280686 0.0227781
v -0.00513217 0.0322611 -0.0399315
vn -0.834756 0.550597 0.00504509
v 0.0298377 0.0158726 -0.0359484
vn 0.803365 -0.549024 0.230601
v 0.0298659 -0.0642009 -0.0430974
vn -0.991894 -0.0956795 -0.0836157
v 0.00145154 0.0339579 -0.0414192
vn 0.757941 0.647685 -0.0776551
v -0.000169047 -0.079596 -0.0420868
vn 0.321369 0.863198 -0.389373
v 0.0339014 -0.0595567 -0.0397681
vn 0.643255 0.670001 -0.370568
v 0.000876125 -0.0841811 -0.0363272
vn 0.734458 -0.676182 0.0578847
v 0.0334407 -0.0669808 -0.0352083
vn 0.657502 -0.740464 0.139303
v 0.0224925 0.017411 -0.036859
vn -0.973784 -0.143969 -0.176119
v -0.00451576 -0.0769626 -0.036975
vn -0.642724 0.67307 -0.365899
v 0.028185 0.0244775 -0.037575
vn 0.129927 0.927697 -0.349997
v 0.0358021 -0.061652 -0.0322171
vn 0.954245 -0.296556 0.0383563
v -0.0044085 -0.083937 -0.0338885
vn -0.848099 -0.481784 0.220483
v 0.023626 0.0146345 -0.034726
vn -0.738316 -0.673288 -0.0396524
v 0.00211073 -0.0800166 -0.0354479
vn 0.982812 -0.00880326 -0.184399
v 0.0030325 0.0292125 -0.03909
vn 0.994431 -0.0738321 -0.0752089
v 0.0274478 0.014126 -0.0341703
vn 0.289404 -0.92943 0.228919
v -0.00655288 -0.0778348 -0.0318706
vn -0.992416 0.096103 -0.0766505
v 0.0289923 -0.0568218 -0.0322459
vn -0.558683 0.67926 -0.475897
v -0.00013491 0.0237398 -0.0302247
vn 0.469236 -0.87591 -0.112245
v 0.028762 -0.064896 -0.0284125
vn -0.673948 -0.73784 0.0372244
v 0.031138 0.0234055 -0.0358
vn 0.799847 0.591471 -0.102017
v -0.00363288 0.0233237 -0.0335353
vn -0.566479 -0.821398 -0.0663798
v 0.0268739 -0.0585249 -0.027571
vn -0.990857 -0.0784717 -0.109744
v 0.0219393 0.0234091 -0.0308407
vn -0.902732 0.349586 -0.250727
v -9.18125e-05 -0.0692863 -0.024907
vn 0.522542 0.700781 -0.485649
v -0.002063 0.0341915 -0.02912
vn -0.485857 0.873462 -0.0317245
v 0.0236699 0.0301757 -0.0183349
vn -0.3896 0.850012 -0.35453
v -0.00456664 0.0288144 -0.0283325
vn -0.995643 -0.058002 0.0730078
v -0.000964656 -0.0825518 -0.0224352
vn 0.0158156 -0.943078 0.332195
v 0.00201756 0.032837 -0.0301732
vn 0.679309 0.732074 0.0510656
v 0.00338007 0.0276244 -0.0259588
vn 0.958731 -0.258819 -0.117676
v 0.0313634 -0.0470467 -0.0187772
vn -0.0403114 0.862972 -0.503642
v 0.0309542 0.022571 -0.0308425
vn 0.959744 0.0369192 0.278439
v -0.00608544 -0.0725358 -0.0262577
vn -0.969884 -0.192621 -0.149071
v 0.0354858 -0.0498755 -0.021612
vn 0.603088 0.658649 -0.449962
v 0.00302462 -0.0746415 -0.0256284
vn 0.980134 0.153841 -0.125183
v 0.0370628 -0.0570076 -0.0257793
vn 0.939007 -0.342015 -0.035948
v -0.003156 -0.0755171 -0.0236595
vn -0.931734 -0.224096 0.28575
v -0.00475341 -0.0677768 -0.0251818
vn -0.345407 0.596994 -0.72408
v 0.0231295 0.015776 -0.01935
vn -0.516959 -0.778526 -0.355881
v -0.0033255 -0.0821505 -0.0227726
vn -0.629853 -0.575944 0.521128
v 0.0273793 0.017018 -0.0190448
vn 0.762563 -0.646599 0.0202099
v -0.00340959 0.021506 -0.0140611
vn -0.697086 -0.688367 -0.200554
v -0.00513752 0.0309039 -0.0247111
vn -0.946814 0.178757 -0.267561
v 0.0301235 0.0253352 -0.0219821
vn 0.98038 -0.131312 -0.14701
v 0.00242953 -0.081465 -0.0239906
vn 0.776049 -0.558642 0.29269
v -0.00276294 -0.0752381 -0.0161969
vn -0.918673 -0.354621 0.174021
v 0.028275 -0.0498075 -0.0193568
vn -0.960297 0.262824 -0.0935615
v 0.0285887 -0.061598 -0.0193235
vn -0.941616 -0.180949 0.28393
v 0.0179734 0.0224945 -0.0180165
vn -0.715981 -0.1819 -0.674005
v 0.030838 -0.0606725 -0.012438
vn 0.355241 -0.855509 0.376708
v -0.00202263 0.0212808 -0.0191483
vn -0.0949577 -0.846463 -0.523911
v 0.0292971 0.0316225 -0.0159374
vn 0.476438 0.759131 -0.44354
v 0.0216118 0.0306936 -0.0163921
vn -0.220127 0.483741 -0.847077
v -0.00710251 0.0351967 -0.0127455
vn -0.719201 0.659625 -0.218277
v 0.0044355 0.0257107 -0.0179198
vn 0.655405 -0.341387 -0.67372
v -0.00330533 0.0363668 -0.0143911
vn -0.150724 0.916008 -0.371768
v -0.00797879 0.0282365 -0.0145571
vn -0.873693 -0.294002 -0.387586
v 0.00124502 0.0330509 -0.018304
vn 0.69233 0.678712 -0.245009
v 0.0383688 -0.0512561 -0.0171758
vn 0.963762 0.142617 -0.22544
v -0.00495694 0.026301 -0.0181724
vn -0.880511 -0.394179 -0.263292
v -0.00703763 -0.0630283 -0.0191468
vn -0.638239 0.599768 -0.482627
v -0.000600609 -0.0526428 -0.00678063
vn 0.165778 0.693292 -0.70133
v 0.000441094 -0.0645645 -0.0172763
vn 0.916433 0.393764 0.0714181
v 0.00142572 -0.0603601 -0.0133916
vn 0.877994 0.175872 -0.445191
v 0.030476 -0.0564315 -0.018124
vn -0.753804 0.396 0.52437
v 0.0276675 -0.0588469 -0.0148293
vn -0.942406 -0.334385 0.00762411
v -0.00920631 -0.0655865 -0.015355
vn -0.996866 0.0345408 -0.0711693
v 0.020761 0.00993073 -0.0182904
vn 0.210524 -0.249133 -0.945311
v 0.0145858 -0.00647531 -0.0182984
vn 0.154123 -0.0522501 -0.986669
v 0.00976739 0.00161899 -0.0187171
vn -0.0176568 0.0157062 -0.999721
v 0.0340572 -0.0584391 -0.0113421
vn 0.502998 -0.834176 -0.226147
v 0.0100302 0.019616 -0.0176176
vn -0.0360156 0.090795 -0.995218
v 0.0122247 -0.0169205 -0.017217
vn 0.1547 -0.247546 -0.956446
v 0.00747395 -0.0140075 -0.0176192
vn -0.145813 -0.182952 -0.972248
v 0.00515043 0.00151043 -0.0178667
vn -0.494843 0.0646294 -0.866576
v 0.0284732 -0.0468256 -0.0137531
vn -0.970537 0.161709 -0.178631
v 0.0169764 0.0020167 -0.0179389
vn 0.362757 0.0223148 -0.931616
v 0.00340406 -0.0705242 -0.0118948
vn 0.915677 -0.373883 -0.147466
v 0.0302341 0.0209984 -0.0119948
vn 0.757526 -0.607852 -0.238054
v -0.00764205 -0.0688836 -0.0110243
vn -0.863744 -0.494905 0.0949482
v 0.0217455 0.00748806 -0.0147638
vn 0.844089 -0.369978 -0.388111
v 0.000658695 -0.011366 -0.015446
vn -0.483873 -0.117872 -0.867164
v 0.00533584 0.0155115 -0.0174045
vn -0.462979 -0.265428 -0.845694
v 0.000124195 -0.0738684 -0.0133243
vn 0.261426 -0.863511 0.431283
v 0.00292945 0.00536429 -0.0158955
vn -0.758195 0.241762 -0.605551
v 0.0353593 -0.0442892 -0.0117025
vn 0.535101 0.773872 -0.338804
v 0.0372905 -0.0551114 -0.00838111
vn 0.950354 -0.311041 -0.00894457
v 0.0192668 -0.0177047 -0.0157779
vn 0.230351 -0.267018 -0.935756
v 0.0257474 -0.0138323 -0.0138463
vn 0.510751 -0.134375 -0.849162
v 0.00664425 0.0316894 -0.0155703
vn 0.169402 0.504337 -0.846727
v 0.0246259 -0.000631875 -0.0136654
vn 0.635215 0.193256 -0.747766
v 0.00310257 -0.0195079 -0.0148437
vn -0.358698 -0.326982 -0.87431
v 0.0104642 -0.0266916 -0.0134347
vn -0.0466068 -0.456183 -0.888664
v 0.00282369 0.01394 -0.0117805
vn -0.859075 0.121823 -0.497142
v 0.028088 -0.0570145 -0.010372
vn -0.88722 0.41246 -0.206684
v 0.0301798 -0.0436855 -0.012152
vn -0.657659 0.680272 -0.323596
v 0.037527 -0.0458098 -0.00715969
vn 0.942344 0.224863 -0.24784
v -0.00596863 -0.0573241 -0.0124899
vn -0.407134 0.70672 -0.578609
v 0.0260338 0.0336009 -0.0145309
vn 0.397393 0.778572 -0.485701
v 0.0190469 0.0342038 -0.0141734
vn -0.0281694 0.543711 -0.8388
v 0.0077245 0.0384462 -0.0102263
vn 0.026609 0.7234 -0.689916
v -0.00220975 -0.0608625 -0.012225
vn 0.907262 -0.149825 0.392974
v 0.0218607 -0.0235286 -0.012852
vn 0.300113 -0.415199 -0.858803
v 0.0304831 -0.0105431 -0.0105193
vn 0.661285 0.0170456 -0.749941
v 0.00141897 0.0165382 -0.00986328
vn -0.599198 -0.657078 -0.457395
v -0.00575738 -0.0116205 -0.0103648
vn -0.740717 -0.0115426 -0.671718
v -0.00348407 -0.0218148 -0.0100673
vn -0.586668 -0.30126 -0.751707
v 0.0219345 0.039356 -0.0103016
vn 0.20609 0.78281 -0.587142
v -0.00837305 -0.0556717 -0.00703079
vn -0.754422 0.378401 -0.536339
v 0.00489216 -0.0565612 -0.00713428
vn 0.664077 -0.526072 -0.531272
v 0.0350589 0.0305135 -0.00105613
vn 0.949932 0.239188 -0.201043
v 0.0333229 0.0240296 -0.00833136
vn 0.948977 -0.121147 -0.291145
v 0.00501784 -0.0693039 -0.00651719
vn 0.883169 0.397684 -0.248719
v 0.00265925 -0.0290968 -0.00981325
vn -0.341042 -0.518775 -0.78394
v -0.0100319 0.0344701 -0.00121083
vn -0.898432 0.40762 -0.163296
v 0.0168335 -0.0316876 -0.0096553
vn 0.163795 -0.511642 -0.843442
v -0.0086435 -0.0628249 -0.007697
vn -0.957298 -0.239818 -0.161458
v 0.026333 0.0138205 -0.005881
vn 0.815929 0.166579 -0.553634
v -0.000359563 0.0406816 -0.00807644
vn -0.390996 0.838758 -0.378954
v -0.00139248 -0.0724954 -0.00726788
vn -0.051421 -0.9984 -0.0235115
v -0.006258 0.0192605 -0.007725
vn -0.709559 -0.635655 -0.304088
v 0.0319 -0.0610547 -0.00690653
vn -0.0988254 -0.887375 -0.450332
v -0.0020895 -0.0593199 -0.0059715
vn 0.706504 -0.0608524 -0.705088
v 0.0252645 -0.0590252 -0.0064608
vn -0.663646 -0.292503 -0.688488
v 0.0271604 -0.0314643 -0.00630481
vn 0.581036 -0.201611 -0.788511
v 0.0333023 -0.00582163 -0.00707194
vn 0.752426 0.195266 -0.629068
v 0.0156768 -0.0408035 -0.00288997
vn -0.0498643 -0.576646 -0.815471
v 0.0222581 0.0418526 -0.00270425
vn 0.37825 0.84113 -0.386559
v -0.00545481 0.0377382 -0.00569341
vn -0.621304 0.679556 -0.390108
v 0.0343747 -0.0387536 -0.00555463
vn 0.183018 0.65324 -0.734699
v 0.006003 -0.0389121 -0.00318605
vn -0.215727 -0.589405 -0.778501
v -0.009124 -0.0088315 -0.005396
vn -0.934766 0.134497 -0.328821
v 0.0319551 0.0357885 -0.00176672
vn 0.785458 0.583413 -0.206605
v -0.0110778 0.0276466 -0.00549456
vn -0.963531 -0.203418 -0.173864
v -0.00604661 0.00448434 -0.0031719
vn -0.852824 0.33458 -0.400933
v 0.0261056 -0.0352021 -0.00766641
vn 0.12592 -0.164073 -0.978378
v 0.00790619 0.0413199 -0.00513175
vn 0.04419 0.937688 -0.344658
v -0.00854311 -0.0174016 -0.00588819
vn -0.8446 -0.129543 -0.51949
v 0.0367981 -0.0602064 -0.00406915
vn 0.854946 -0.464179 -0.231527
v 0.0279689 0.0397989 -0.00174909
vn 0.479763 0.752883 -0.450549
v -0.0028782 -0.0313048 -0.00466403
vn -0.505212 -0.522891 -0.686546
v 0.0291057 0.0138727 -0.001656
vn 0.847371 -0.343369 -0.405044
v 0.0353293 -0.0166167 -0.00499225
vn 0.79508 -0.134816 -0.591331
v 0.0287723 -0.0405335 -0.00518275
vn -0.307613 -0.177272 -0.934852
v 0.0170225 0.045541 0.0033535
vn 0.0122329 0.945432 -0.325589
v 0.026902 -0.0475695 -0.0040785
vn -0.216099 0.128087 -0.967933
v 0.033775 -0.000284313 -0.00388258
vn 0.840871 0.297032 -0.452447
v 0.0254055 -0.0544441 -0.004619
vn -0.442371 0.203222 -0.873504
v -0.00514698 -0.0709938 -0.00267292
vn -0.651693 -0.755395 0.0683676
v 0.0258056 -0.0433149 -0.00396906
vn -0.393006 -0.125384 -0.910947
v 0.00589616 -0.0572283 -0.00481391
vn 0.234543 -0.595602 -0.768276
v 0.002891 -0.0632205 -0.0032515
vn 0.777741 0.393911 -0.48985
v -0.0114218 -0.0615325 -0.00230825
vn -0.894153 -0.0337866 -0.446484
v -0.00688231 -0.0302034 -0.00119802
vn -0.806724 -0.422918 -0.412719
v 0.0348166 0.0239884 -0.00154538
vn 0.973722 -0.209774 -0.0886521
v -0.00496563 -0.0471103 -0.00324181
vn -0.231869 0.441647 -0.866709
v 0.0154044 -0.0537132 -0.00412306
vn 0.0052373 0.0393576 -0.999211
v 0.00166537 0.0447549 0.00169512
vn 0.0135351 0.9568 -0.290433
v 0.0332799 -0.0302252 -0.000163438
vn 0.808186 0.0178365 -0.588657
v 0.00485824 -0.0435451 -0.00297748
vn -0.018069 0.172668 -0.984814
v -0.00464031 0.0151183 0.000903312
vn -0.970788 -0.0674008 -0.230279
v 0.0403708 -0.0501511 0.000212621
vn 0.975453 -0.0255055 -0.218724
v -0.0109388 0.0259475 0.000750648
vn -0.947633 -0.318721 0.0202167
v 0.0320713 -0.0668991 0.00339522
vn 0.172262 -0.874323 -0.453745
v 0.0376171 -0.00725104 0.00116912
vn 0.946219 0.224372 -0.23308
v -0.008008 -0.067089 -0.001719
vn -0.724744 -0.674725 0.139615
v -0.0108769 -0.0212993 0.000759625
vn -0.944256 -0.18032 -0.275438
v 0.0156866 -0.0596885 -0.00132492
vn 0.0396843 -0.637837 -0.769149
v -0.000614438 -0.0730188 0.0028067
vn -0.532242 -0.844073 0.0652588
v 0.00437003 -0.0737033 0.00235748
vn 0.176173 -0.974301 -0.140357
v 0.038015 -0.0376215 -0.0005875
vn 0.802035 0.426689 -0.417944
v 0.0331616 0.0195819 0.00535425
vn 0.935221 -0.35311 -0.025998
v 0.0385172 -0.0225948 0.00366131
vn 0.89678 -0.293419 -0.331196
v -0.00668664 0.0162138 0.00862364
vn -0.919671 -0.391407 -0.0317095
v 0.0314344 0.0127995 0.00401137
vn 0.962243 0.0980566 -0.253916
v 0.00352325 -0.0652335 0.0004015
vn 0.754383 0.207563 -0.622755
v -0.00370209 -0.0390186 -0.000125883
vn -0.578222 0.23183 -0.78225
v 0.00986503 -0.0703178 0.00232587
vn 0.818432 0.0521379 -0.572233
v -0.0105147 0.0344178 0.00607076
vn -0.974847 0.222688 0.00911478
v -0.00688421 0.0416052 0.00325552
vn -0.748473 0.6231 -0.227011
v 0.0404075 -0.0570162 0.00564627
vn 0.888299 -0.436327 -0.143329
v -0.0104433 -0.0437597 0.0019502
vn -0.773287 0.521084 -0.361245
v 0.0394704 -0.0169461 0.00466384
vn 0.980065 -0.0466575 -0.193121
v -0.0115438 -0.0605204 0.00932925
vn -0.966212 -0.228032 0.120152
v -0.00955668 -0.0656978 0.00543239
vn -0.723265 -0.689066 0.0455565
v 0.0409428 -0.041484 0.00462416
vn 0.971739 0.173543 -0.160021
v 0.0102906 -0.0721612 0.00672537
vn 0.551642 -0.806184 -0.213913
v -0.0125047 -0.0556492 0.00284532
vn -0.994002 -0.0269698 -0.105982
v 0.0108155 -0.0678263 0.00451275
vn 0.443723 -0.279214 -0.851557
v 0.0354134 -0.0317011 0.0060725
vn 0.916253 0.333554 -0.221862
v 0.0222445 -0.0683227 0.00875151
vn -0.121535 -0.879132 -0.460821
v -0.0113586 -0.00627089 0.00536253
vn -0.980793 0.188642 -0.0495951
v -0.003283 -0.0691995 0.00444525
vn -0.537039 -0.843355 0.0184674
v -0.003082 0.0450285 0.005673
vn -0.380809 0.911341 -0.156339
v 0.0390434 -0.036392 0.00699377
vn 0.838779 0.533111 -0.110642
v 0.0329873 0.0393643 0.00834025
vn 0.87234 0.481026 -0.0873863
v -0.012595 -0.0475555 0.003276
vn -0.97524 0.220971 0.0088353
v 0.0322546 0.0121498 0.00835541
vn 0.969223 0.244378 0.0297826
v 0.0144696 -0.0686866 0.00925087
vn 0.453502 -0.706795 -0.542933
v 0.029512 0.0437515 0.006552
vn 0.619787 0.768911 -0.156968
v 0.034583 0.0267619 0.0103219
vn 0.990423 -0.0647849 0.121921
v -0.00743236 -0.0355756 0.0110531
vn -0.997183 0.0329805 -0.0673717
v -0.012203 -0.0146296 0.00788514
vn -0.997828 0.0263648 0.0603604
v 0.0342533 -0.0677523 0.00882544
vn 0.701401 -0.689869 -0.179215
v -0.00840608 0.022963 0.0174984
vn -0.966348 -0.179889 0.183881
v -0.0110359 -0.0242038 0.00911676
vn -0.972715 -0.225682 0.0537884
v 0.0344136 0.0321201 0.00964841
vn 0.981892 0.114281 0.15109
v 0.0396176 -0.012796 0.0112652
vn 0.984963 0.138805 0.102863
v 0.0372638 -0.063188 0.0107862
vn 0.80086 -0.588958 -0.108406
v 0.0256093 0.0464108 0.0101342
vn 0.327772 0.936831 -0.122118
v -0.00991182 -0.0417202 0.0133416
vn -0.938147 0.345071 0.0284034
v -0.0101572 -0.043857 0.0187528
vn -0.974502 0.190922 0.117878
v -0.00651629 0.0103468 0.0111288
vn -0.971934 0.210696 0.104652
v 0.0042505 0.0482276 0.0145487
vn -0.539214 0.76728 -0.347173
v -0.00722241 0.0424623 0.0108678
vn -0.661578 0.73695 0.13863
v 0.0407308 -0.0415497 0.0178837
vn 0.964142 0.256744 0.0671781
v 0.0148956 0.0485241 0.0158572
vn 0.1033 0.948454 -0.299607
v 0.041764 -0.0515601 0.0143455
vn 0.998728 -0.0355221 0.0357731
v 0.0306118 -0.070343 0.0120758
vn 0.234076 -0.962355 -0.138131
v -0.00986448 0.0328211 0.0154169
vn -0.978234 0.093715 0.185138
v -0.0100603 -0.00360131 0.012201
vn -0.94202 0.190974 0.275912
v 0.0374374 -0.0311096 0.0163745
vn 0.982913 -0.153026 0.102301
v -0.0032868 -0.0688613 0.0180461
vn -0.603429 -0.775573 0.185364
v 0.00540225 -0.0737835 0.016879
vn 0.0117032 -0.984856 0.17298
v 0.00115153 -0.0736022 0.0122685
vn -0.427819 -0.887666 0.170356
v 0.015014 -0.071117 0.0184835
vn 0.246054 -0.969195 -0.0109149
v 0.0318895 0.0393352 0.0171817
vn 0.911611 0.322908 0.254355
v 0.0404405 -0.0582833 0.019968
vn 0.899069 -0.427362 0.0950624
v -0.00857292 -0.0634684 0.0171505
vn -0.823505 -0.485851 0.292897
v -0.0102565 -0.0134769 0.0149434
vn -0.901994 0.0601209 0.427542
v 0.0252302 -0.0713647 0.0174887
vn -0.00867689 -0.999881 -0.0127509
v 0.0320686 -0.0695597 0.0178922
vn 0.520392 -0.833391 0.186152
v 0.0360198 -0.00581246 0.0172407
vn 0.871574 0.271451 0.408256
v 0.0389436 -0.0152476 0.0161996
vn 0.941053 0.0619981 0.33253
v -0.0109093 -0.0496453 0.0205025
vn -0.976864 -0.0214339 0.212783
v 0.0310427 0.0101517 0.0179463
vn 0.913716 -0.05058 0.403192
v 0.0409361 -0.0501435 0.0224887
vn 0.985023 0.0328981 0.169255
v -0.00437794 0.013478 0.0194584
vn -0.906167 -0.282173 0.315025
v 0.0292521 0.0435827 0.0177356
vn 0.698514 0.676908 0.23211
v -0.00177513 0.0441539 0.020807
vn -0.743782 0.663892 0.0776856
v 0.0318061 0.030852 0.0211293
vn 0.936644 0.0609167 0.344945
v -0.00427798 0.00641692 0.0191674
vn -0.814776 0.0481008 0.577777
v -0.00713213 -0.0327714 0.0181289
vn -0.937172 -0.0467626 0.345719
v 0.0232004 0.0471588 0.0193125
vn 0.425843 0.902594 0.063106
v 0.00519416 0.053046 0.0225097
vn -0.400535 0.738509 -0.54238
v -0.0080535 0.037366 0.0192035
vn -0.871629 0.332303 0.360331
v 0.0357619 -0.0641197 0.0222173
vn 0.766362 -0.574794 0.286883
v -0.007341 -0.0141995 0.019802
vn -0.708718 0.0835956 0.700521
v 0.00988731 0.0550183 0.0273377
vn 0.202907 0.858746 -0.470515
v 0.0334919 -0.0105594 0.0233107
vn 0.719293 0.248307 0.648815
v -0.0083725 -0.054533 0.0246282
vn -0.885704 -0.161651 0.435197
v 0.0389276 -0.0361046 0.0242336
vn 0.961033 0.24416 0.129623
v 0.0253519 0.0439755 0.0249704
vn 0.803464 0.554063 0.217854
v -0.00409841 -0.027947 0.023853
vn -0.833004 0.204331 0.514152
v -0.00298959 0.0411002 0.0235675
vn -0.802143 0.418016 0.426414
v 0.0357225 -0.0272073 0.023712
vn 0.881869 0.177339 0.436873
v 0.00298759 -0.0704703 0.0239393
vn -0.377858 -0.781378 0.49666
v -0.00747994 0.0302912 0.0230024
vn -0.89766 -0.0089025 0.440599
v -0.00567445 0.0205822 0.0234465
vn -0.870599 -0.202398 0.448434
v 0.029164 -0.0680355 0.025447
vn 0.255601 -0.846853 0.466377
v 0.0240061 0.00834071 0.0268542
vn 0.634561 -0.217086 0.741759
v -0.0064007 -0.0352522 0.0268722
vn -0.869831 0.285487 0.402357
v 0.0192806 0.0521323 0.0306606
vn 0.714866 0.690192 -0.112258
v -0.00526097 -0.0634514 0.0235085
vn -0.698824 -0.507012 0.504563
v 0.0113876 -0.0701051 0.0255443
vn 0.082781 -0.87879 0.469974
v 0.00155484 0.00179278 0.0243982
vn -0.561433 0.0421475 0.826448
v 0.0391875 -0.0557603 0.0253427
vn 0.880428 -0.222598 0.418684
v 0.0279208 0.0214369 0.0281545
vn 0.844297 -0.17651 0.505972
v 0.0270776 0.003152 0.0244334
vn 0.621007 0.159471 0.767411
v -0.00881634 -0.04315 0.0251153
vn -0.895824 0.0684432 0.439107
v 0.000215797 0.0372434 0.031098
vn -0.815994 0.176696 0.550392
v 0.0319212 -0.0226913 0.0274327
vn 0.617605 0.213215 0.757036
v 0.013965 0.0568486 0.0340981
vn 0.415159 0.850964 -0.32172
v 0.0243741 0.0415919 0.0293496
vn 0.848674 0.219967 0.481006
v 0.0294457 0.0285363 0.0263114
vn 0.798634 -0.037232 0.600664
v 0.000745844 -0.021327 0.0273026
vn -0.524988 0.166574 0.83465
v 0.00154698 0.0081462 0.0264781
vn -0.707612 -0.390338 0.589
v 0.0370384 -0.0341125 0.0282056
vn 0.827097 0.305205 0.471974
v -0.00187788 -0.0617724 0.0286936
vn -0.485076 -0.501777 0.716185
v 0.035981 -0.0591025 0.028117
vn 0.599812 -0.434396 0.671957
v 0.0248244 0.0177206 0.0306197
vn 0.678627 -0.257007 0.68805
v -0.00184958 0.0466859 0.030499
vn -0.965823 0.210197 -0.15167
v -0.00195921 0.0269659 0.0309422
vn -0.750131 -0.114579 0.651288
v -0.000148 0.0173545 0.030473
vn -0.711072 -0.314982 0.62862
v -0.00365556 -0.0554062 0.0299047
vn -0.645774 -0.245157 0.7231
v 0.00885319 0.000941594 0.0285676
vn -0.362204 -0.21843 0.906144
v 0.0175 -0.067553 0.0294035
vn 0.0258768 -0.696355 0.717231
v 0.038468 -0.0432125 0.029068
vn 0.848806 -0.0124111 0.52856
v 0.0219813 -0.00646319 0.028531
vn 0.166228 0.137171 0.9765
v -0.004567 -0.0426035 0.030869
vn -0.651682 -0.0392378 0.757477
v 0.00921719 -0.00962831 0.0287551
vn -0.227703 0.159171 0.960633
v -0.000996188 0.0429955 0.0336122
vn -0.926717 -0.312508 0.208649
v 0.0261588 -0.0218472 0.0310458
vn 0.348834 0.291628 0.890656
v -0.0024115 -0.03278 0.030679
vn -0.677675 0.374212 0.633026
v -0.00082875 0.0526362 0.0344732
vn -0.9313 0.111238 -0.346852
v 0.0324491 -0.0309286 0.0317825
vn 0.577332 0.411495 0.705237
v 0.028593 -0.0620805 0.031217
vn 0.347022 -0.44945 0.823147
v 0.016812 0.00289719 0.0293368
vn 0.182047 -0.292921 0.938646
v 0.00716081 0.0163816 0.0363693
vn -0.613199 -0.362477 0.701853
v 0.0075435 -0.062827 0.032147
vn -0.188938 -0.43136 0.882174
v -0.00097375 0.0622279 0.0380148
vn -0.302196 0.634399 -0.711489
v 0.00701875 -0.0219615 0.030719
vn -0.282451 0.296831 0.912202
v 0.0356928 -0.0512852 0.0315286
vn 0.628943 -0.15756 0.761318
v 0.0162002 -0.019629 0.0314127
vn -0.051583 0.301769 0.951985
v 0.0116683 0.0168065 0.037983
vn -0.157339 -0.541867 0.825605
v 0.0188901 -0.0603323 0.0339119
vn 0.0900323 -0.421487 0.902354
v 0.00229756 -0.032862 0.0334088
vn -0.377482 0.327385 0.866214
v 0.0158605 0.012531 0.0349481
vn 0.377558 -0.484603 0.789056
v -0.00193338 -0.03677 0.0322656
vn -0.508485 0.115417 0.853301
v 0.0347199 -0.040972 0.0329343
vn 0.638278 0.0677798 0.766817
v 0.00344787 0.0650398 0.0414638
vn 0.390944 0.753283 -0.528893
v 0.0213722 0.0325724 0.036493
vn 0.838377 0.00585084 0.54506
v 0.00288673 0.0288702 0.0357575
vn -0.8482 -0.131661 0.513052
v 0.0214368 0.0408295 0.0354396
vn 0.942667 0.0136295 0.333457
v -0.0354399 0.0859349 0.032881
vn 0.0509591 0.161004 -0.985637
v 0.0282797 -0.0516852 0.0352529
vn 0.33046 -0.207017 0.920837
v -0.0398705 0.085919 0.0346222
vn -0.695119 -0.0848992 -0.713864
v -0.03832 0.0824565 0.0349545
vn -0.383914 -0.600759 -0.701212
v 0.028926 -0.0335695 0.035158
vn 0.299629 0.166915 0.939341
v 0.00355882 -0.0504601 0.0350968
vn -0.312867 -0.141197 0.939243
v 0.021932 -0.0332655 0.036205
vn -0.0149304 0.244574 0.969516
v -0.0277473 0.080342 0.037166
vn 0.101363 -0.440757 -0.891885
v -0.0322246 0.0888888 0.0344109
vn 0.480864 0.40899 -0.775562
v 0.0316287 -0.043357 0.0350796
vn 0.375889 -0.0289688 0.926212
v -0.0345568 0.0912528 0.0362193
vn 0.0916339 0.97723 -0.191378
v -0.0385159 0.0907591 0.0364696
vn -0.320154 0.907655 -0.271412
v -0.03311 0.0784117 0.0392658
vn -0.529492 -0.804751 -0.268353
v 0.0161082 -0.0530026 0.0361984
vn -0.0184735 -0.218579 0.975644
v 0.00724366 -0.0385019 0.0360923
vn -0.203292 0.150209 0.967527
v 0.00151725 0.0376195 0.041544
vn -0.963119 -0.261644 0.0627992
v -0.00327859 0.0529589 0.0429054
vn -0.978661 -0.19507 -0.0645778
v -0.0254489 0.0856585 0.0384295
vn 0.483552 0.344027 -0.804874
v -0.0415298 0.0871649 0.0373867
vn -0.983168 -0.124183 -0.134014
v 0.0145442 0.0264769 0.0452083
vn 0.623148 -0.410598 0.665654
v 0.0115834 -0.0440598 0.0369717
vn -0.0853897 -0.00775047 0.996317
v -0.0275888 0.088514 0.0386196
vn 0.468862 0.853131 -0.228769
v -0.00420239 0.0597614 0.0433896
vn -0.840811 -0.476636 -0.256622
v -0.0391971 0.0819866 0.0396435
vn -0.715135 -0.67413 0.184748
v 0.021527 -0.0438417 0.0372549
vn 0.0596657 -0.0288616 0.997801
v 0.0158854 0.0551017 0.050216
vn 0.932742 0.283204 0.223134
v -0.040503 0.0886587 0.041119
vn -0.801434 0.420496 0.425308
v -0.019302 0.0726215 0.0394662
vn -0.0843094 -0.160945 -0.983356
v 0.0170073 0.0347105 0.0463989
vn 0.905443 -0.174317 0.387022
v 0.0105206 0.0633984 0.0494604
vn 0.51944 0.816284 -0.252712
v -0.00431975 0.0643134 0.0393143
vn -0.211916 -0.258634 -0.942444
v -0.0103888 0.0728432 0.0390507
vn 0.232492 0.261332 -0.936832
v -0.0317689 0.0902435 0.0426755
vn 0.152413 0.960607 0.232389
v -0.0361529 0.0911737 0.0419199
vn -0.124225 0.911007 0.393236
v -0.0176216 0.080136 0.0398237
vn 0.140877 0.344092 -0.928307
v -0.0168028 0.0656236 0.0409328
vn -0.198679 -0.682075 -0.703775
v 0.00221314 0.0382069 0.0469203
vn -0.857067 -0.454592 0.242451
v -0.0396208 0.083556 0.0429985
vn -0.824238 -0.490192 0.28345
v -0.00626938 0.0790271 0.0419804
vn 0.507181 0.180338 -0.84276
v -0.00335194 0.0742913 0.0451078
vn 0.809467 0.239913 -0.535915
v 0.00723795 0.0298044 0.0467595
vn -0.671575 -0.527903 0.51991
v -0.0255338 0.0709701 0.0431042
vn -0.599038 -0.692367 -0.40222
v -0.0180943 0.086649 0.0447198
vn 0.231364 0.920734 -0.314196
v -0.011211 0.0832585 0.0424113
vn 0.152523 0.564642 -0.811121
v 0.0127683 0.0614138 0.051405
vn 0.81624 0.575163 0.0542188
v -0.00647759 0.0615874 0.0488556
vn -0.516854 -0.820503 -0.244204
v -0.0294141 0.0749171 0.0486835
vn -0.77661 -0.620219 0.110478
v -0.0085745 0.083119 0.044613
vn 0.61742 0.747605 -0.244704
v -0.01734 0.0640841 0.0450157
vn -0.421134 -0.894333 -0.151045
v 0.0101466 0.0357491 0.0546183
vn -0.0279735 -0.667973 0.74366
v -0.0319955 0.0820542 0.052046
vn -0.808602 -0.09298 0.580962
v 0.00449612 0.0666963 0.0484936
vn 0.616035 0.734893 -0.283608
v -0.0131653 0.0624978 0.0481991
vn -0.0976321 -0.995172 0.0100506
v -0.0018565 0.0759043 0.0581356
vn 0.799018 0.599421 -0.0475886
v -0.0252743 0.0694193 0.05121
vn -0.606969 -0.794578 0.0153226
v -0.0238055 0.0876182 0.0484577
vn -0.145793 0.96849 0.201918
v -0.0271197 0.0857174 0.0531244
vn -0.349627 0.776373 0.52441
v 0.0138899 0.0401137 0.0558123
vn 0.770844 -0.299347 0.562309
v -0.00861731 0.0841849 0.0523332
vn 0.608293 0.79361 0.0127637
v -0.0141983 0.0870385 0.0509545
vn 0.213984 0.976599 0.0215575
v -0.00647401 0.0558265 0.0537504
vn -0.876626 -0.386674 -0.286374
v -0.0232854 0.0799344 0.0608735
vn -0.629572 0.336718 0.700186
v -0.0129083 0.0644459 0.0580119
vn -0.530587 -0.844853 -0.0685573
v -0.00204446 0.04966 0.0574022
vn -0.717656 -0.640521 0.273317
v 0.00346225 0.0460856 0.0607501
vn -0.560411 -0.621673 0.547231
v -0.0184223 0.0657832 0.0559122
vn -0.292807 -0.950908 0.100189
v -0.0266582 0.0702156 0.0570169
vn -0.86983 -0.492573 -0.0277292
v 0.005821 0.0699605 0.0581265
vn 0.7339 0.671766 0.100597
v -0.0176025 0.088085 0.057443
vn -0.040426 0.994656 -0.0949985
v -0.0277004 0.0732425 0.0584592
vn -0.843519 0.0682277 0.532748
v -0.00943992 0.083863 0.0593556
vn 0.640571 0.766862 -0.0398993
v 0.013278 0.0525995 0.059655
vn 0.86656 0.0748339 0.49343
v -0.0124683 0.0631943 0.0622187
vn -0.66772 -0.728062 -0.155163
v -0.0233051 0.0672741 0.0593796
vn -0.365295 -0.861328 0.353091
v 0.00979205 0.0630888 0.0613745
vn 0.837258 0.376947 0.396119
v -0.0188993 0.086114 0.0608162
vn -0.303752 0.672872 0.67452
v -0.0135967 0.0864711 0.0612732
vn 0.224145 0.825034 0.518728
v -0.0120114 0.0630896 0.0662067
vn -0.518704 -0.72164 0.458456
v -0.00462356 0.0812269 0.0667557
vn 0.855509 0.515329 -0.0503974
v 0.00838931 0.0466963 0.0633401
vn -0.0198433 -0.559348 0.828696
v -0.00253453 0.0761458 0.0646943
vn 0.860747 0.209608 0.463875
v -0.0243268 0.0718184 0.0627147
vn -0.610865 -0.301552 0.732059
v 0.00865494 0.0516259 0.0653332
vn 0.48685 -0.228087 0.84318
v -0.0194737 0.0687398 0.0648836
vn -0.893059 -0.288479 0.345291
v 0.00865528 0.0592053 0.0650239
vn 0.754825 0.178653 0.631128
v -0.00549288 0.0603801 0.0687908
vn -0.328909 -0.55014 0.767571
v -0.00847525 0.0830954 0.067454
vn -0.527891 0.830624 0.177185
v 0.00473816 0.0661748 0.0663512
vn 0.674903 0.377998 0.633737
v -0.0134455 0.078341 0.0705415
vn -0.153667 0.224736 0.962227
v -0.0198073 0.0660021 0.0685181
vn -0.9222 -0.35566 -0.151834
v 0.00242575 0.0602448 0.069975
vn 0.172091 -0.233133 0.957097
v -0.0186338 0.0665858 0.073632
vn -0.0598911 -0.916742 0.394966
v -0.0162074 0.0726934 0.0703936
vn -0.876731 0.393022 0.277265
v -0.007069 0.077228 0.0694613
vn 0.518692 -0.0560651 0.853121
v -0.00373938 0.0702075 0.0709849
vn 0.35385 0.263014 0.89756
v -0.0107285 0.0677866 0.0703806
vn 0.18514 -0.596133 0.781248
v -0.007496 0.085786 0.072391
vn 0.0995097 0.985827 0.135066
v -0.0115095 0.0711911 0.0711456
vn 0.101924 -0.0488239 0.993593
v -0.009791 0.082076 0.0746165
vn -0.778969 -0.159008 0.606567
v -0.0185743 0.0700244 0.0745123
vn 0.155067 0.134227 0.978743
f 3//3 1//1 2//2
f 4//4 3//3 2//2
f 2//2 8//8 4//4
f 1//1 5//5 2//2
f 9//9 6//6 7//7
f 10//10 7//7 6//6
f 13//13 7//7 10//10
f 15//15 11//11 14//14
f 15//15 16//16 11//11
f 16//16 12//12 11//11
f 6//6 9//9 17//17
f 10//10 6//6 21//21
f 15//15 14//14 20//20
f 8//8 2//2 18//18
f 24//24 23//23 22//22
f 25//25 23//23 24//24
f 24//24 26//26 25//25
f 11//11 12//12 19//19
f 12//12 16//16 27//27
f 25//25 32//32 23//23
f 4//4 28//28 3//3
f 31//31 5//5 1//1
f 8//8 28//28 4//4
f 30//30 13//13 10//10
f 34//34 24//24 22//22
f 9//9 7//7 33//33
f 17//17 21//21 6//6
f 21//21 30//30 10//10
f 34//34 22//22 23//23
f 2//2 5//5 18//18
f 37//37 19//19 12//12
f 33//33 7//7 13//13
f 35//35 34//34 23//23
f 36//36 24//24 38//38
f 29//29 35//35 23//23
f 31//31 1//1 39//39
f 27//27 37//37 12//12
f 26//26 40//40 25//25
f 1//1 3//3 39//39
f 29//29 23//23 32//32
f 37//37 41//41 19//19
f 34//34 38//38 24//24
f 26//26 24//24 36//36
f 25//25 40//40 32//32
f 42//42 21//21 17//17
f 33//33 13//13 43//43
f 19//19 41//41 11//11
f 44//44 14//14 11//11
f 15//15 45//45 16//16
f 46//46 39//39 3//3
f 27//27 16//16 45//45
f 30//30 43//43 13//13
f 41//41 44//44 11//11
f 28//28 46//46 3//3
f 20//20 45//45 15//15
f 31//31 18//18 5//5
f 28//28 8//8 18//18
f 40//40 26//26 36//36
f 43//43 30//30 49//49
f 44//44 20//20 14//14
f 36//36 48//48 40//40
f 32//32 40//40 48//48
f 9//9 33//33 43//43
f 28//28 18//18 47//47
f 20//20 44//44 45//45
f 28//28 47//47 46//46
f 42//42 50//50 21//21
f 52//52 44//44 41//41
f 35//35 38//38 34//34
f 53//53 18//18 31//31
f 41//41 37//37 54//54
f 9//9 43//43 51//51
f 17//17 9//9 51//51
f 30//30 21//21 50//50
f 54//54 37//37 27//27
f 49//49 30//30 50//50
f 53//53 31//31 55//55
f 56//56 29//29 32//32
f 38//38 35//35 36//36
f 17//17 51//51 42//42
f 39//39 55//55 31//31
f 57//57 50//50 42//42
f 45//45 58//58 27//27
f 47//47 59//59 46//46
f 60//60 56//56 32//32
f 54//54 27//27 61//61
f 48//48 60//60 32//32
f 58//58 61//61 27//27
f 35//35 29//29 63//63
f 18//18 53//53 66//66
f 49//49 65//65 43//43
f 55//55 39//39 67//67
f 47//47 18//18 64//64
f 66//66 64//64 18//18
f 62//62 67//67 39//39
f 59//59 47//47 64//64
f 39//39 46//46 62//62
f 36//36 35//35 63//63
f 29//29 56//56 68//68
f 51//51 43//43 69//69
f 65//65 69//69 43//43
f 41//41 54//54 52//52
f 49//49 50//50 70//70
f 71//71 42//42 51//51
f 36//36 72//72 48//48
f 55//55 66//66 53//53
f 59//59 62//62 46//46
f 29//29 68//68 63//63
f 52//52 74//74 44//44
f 52//52 54//54 76//76
f 60//60 48//48 75//75
f 56//56 60//60 77//77
f 77//77 68//68 56//56
f 54//54 61//61 73//73
f 54//54 73//73 76//76
f 71//71 57//57 42//42
f 72//72 36//36 63//63
f 68//68 77//77 78//78
f 69//69 71//71 51//51
f 65//65 49//49 70//70
f 72//72 75//75 48//48
f 60//60 75//75 77//77
f 66//66 55//55 79//79
f 74//74 52//52 80//80
f 72//72 77//77 75//75
f 58//58 45//45 81//81
f 67//67 62//62 82//82
f 78//78 63//63 68//68
f 83//83 55//55 67//67
f 84//84 59//59 64//64
f 82//82 62//62 59//59
f 45//45 44//44 81//81
f 52//52 76//76 80//80
f 63//63 78//78 85//85
f 86//86 57//57 71//71
f 69//69 86//86 71//71
f 82//82 83//83 67//67
f 73//73 61//61 76//76
f 66//66 79//79 87//87
f 55//55 83//83 79//79
f 74//74 81//81 44//44
f 87//87 64//64 66//66
f 57//57 70//70 50//50
f 61//61 58//58 88//88
f 81//81 88//88 58//58
f 85//85 78//78 89//89
f 90//90 82//82 59//59
f 84//84 90//90 59//59
f 69//69 65//65 93//93
f 88//88 76//76 61//61
f 72//72 94//94 77//77
f 63//63 92//92 72//72
f 80//80 95//95 74//74
f 86//86 96//96 57//57
f 92//92 98//98 72//72
f 94//94 72//72 98//98
f 91//91 70//70 57//57
f 65//65 70//70 93//93
f 85//85 92//92 63//63
f 99//99 86//86 69//69
f 84//84 64//64 87//87
f 94//94 78//78 77//77
f 70//70 91//91 101//101
f 100//100 95//95 80//80
f 76//76 100//100 80//80
f 96//96 91//91 57//57
f 97//97 81//81 74//74
f 76//76 88//88 103//103
f 82//82 90//90 102//102
f 101//101 93//93 70//70
f 96//96 86//86 104//104
f 105//105 85//85 89//89
f 82//82 106//106 83//83
f 89//89 78//78 107//107
f 97//97 108//108 81//81
f 79//79 83//83 109//109
f 106//106 109//109 83//83
f 89//89 107//107 110//110
f 95//95 111//111 74//74
f 101//101 91//91 112//112
f 97//97 74//74 111//111
f 90//90 84//84 113//113
f 105//105 92//92 85//85
f 82//82 102//102 106//106
f 99//99 104//104 86//86
f 79//79 109//109 115//115
f 111//111 114//114 97//97
f 87//87 79//79 113//113
f 69//69 116//116 99//99
f 113//113 117//117 90//90
f 113//113 79//79 115//115
f 113//113 84//84 87//87
f 110//110 105//105 89//89
f 102//102 90//90 117//117
f 96//96 112//112 91//91
f 94//94 107//107 78//78
f 81//81 108//108 120//120
f 69//69 93//93 116//116
f 96//96 104//104 121//121
f 88//88 81//81 120//120
f 92//92 105//105 119//119
f 103//103 100//100 76//76
f 102//102 117//117 118//118
f 112//112 123//123 101//101
f 98//98 92//92 124//124
f 119//119 122//122 92//92
f 125//125 104//104 99//99
f 95//95 100//100 127//127
f 100//100 103//103 127//127
f 99//99 116//116 128//128
f 122//122 124//124 92//92
f 115//115 109//109 130//130
f 115//115 131//131 113//113
f 112//112 96//96 126//126
f 120//120 132//132 88//88
f 132//132 129//129 88//88
f 125//125 121//121 104//104
f 109//109 106//106 130//130
f 106//106 102//102 118//118
f 121//121 126//126 96//96
f 93//93 101//101 133//133
f 123//123 133//133 101//101
f 134//134 125//125 99//99
f 110//110 135//135 105//105
f 129//129 127//127 103//103
f 88//88 129//129 103//103
f 120//120 108//108 132//132
f 133//133 116//116 93//93
f 97//97 132//132 108//108
f 94//94 98//98 138//138
f 136//136 110//110 107//107
f 127//127 137//137 95//95
f 138//138 107//107 94//94
f 128//128 134//134 99//99
f 138//138 136//136 107//107
f 114//114 111//111 141//141
f 135//135 119//119 105//105
f 113//113 131//131 142//142
f 135//135 110//110 136//136
f 144//144 117//117 113//113
f 139//139 130//130 106//106
f 124//124 138//138 98//98
f 106//106 118//118 143//143
f 124//124 122//122 147//147
f 115//115 145//145 131//131
f 132//132 97//97 140//140
f 146//146 118//118 117//117
f 117//117 144//144 146//146
f 145//145 115//115 148//148
f 126//126 121//121 149//149
f 130//130 148//148 115//115
f 114//114 140//140 97//97
f 137//137 111//111 95//95
f 150//150 112//112 126//126
f 143//143 118//118 146//146
f 125//125 134//134 121//121
f 126//126 149//149 150//150
f 139//139 106//106 143//143
f 112//112 150//150 152//152
f 123//123 112//112 151//151
f 152//152 151//151 112//112
f 153//153 135//135 136//136
f 153//153 136//136 154//154
f 121//121 155//155 149//149
f 124//124 159//159 138//138
f 127//127 129//129 156//156
f 127//127 156//156 137//137
f 158//158 157//157 162//162
f 161//161 162//162 157//157
f 158//158 165//165 157//157
f 137//137 156//156 158//158
f 160//160 158//158 163//163
f 151//151 166//166 123//123
f 158//158 162//162 163//163
f 160//160 137//137 158//158
f 141//141 111//111 137//137
f 158//158 156//156 165//165
f 156//156 129//129 169//169
f 133//133 123//123 166//166
f 128//128 116//116 172//172
f 163//163 162//162 170//170
f 160//160 163//163 171//171
f 139//139 143//143 171//171
f 116//116 133//133 172//172
f 160//160 171//171 143//143
f 147//147 175//175 124//124
f 171//171 163//163 173//173
f 157//157 176//176 161//161
f 169//169 165//165 156//156
f 134//134 128//128 172//172
f 142//142 144//144 113//113
f 137//137 160//160 141//141
f 134//134 168//168 121//121
f 143//143 178//178 160//160
f 178//178 141//141 160//160
f 157//157 165//165 177//177
f 170//170 162//162 180//180
f 143//143 146//146 178//178
f 177//177 176//176 157//157
f 119//119 135//135 184//184
f 147//147 122//122 185//185
f 162//162 181//181 180//180
f 129//129 132//132 167//167
f 165//165 179//179 177//177
f 186//186 150//150 149//149
f 138//138 154//154 136//136
f 176//176 181//181 161//161
f 169//169 179//179 165//165
f 140//140 114//114 187//187
f 114//114 141//141 187//187
f 174//174 185//185 122//122
f 162//162 161//161 181//181
f 135//135 153//153 183//183
f 183//183 153//153 154//154
f 135//135 164//164 184//184
f 144//144 178//178 146//146
f 119//119 174//174 122//122
f 167//167 169//169 129//129
f 139//139 171//171 130//130
f 190//190 151//151 152//152
f 171//171 173//173 182//182
f 133//133 166//166 172//172
f 168//168 155//155 121//121
f 188//188 141//141 178//178
f 189//189 188//188 178//178
f 178//178 144//144 189//189
f 177//177 179//179 192//192
f 124//124 175//175 159//159
f 163//163 170//170 194//194
f 184//184 174//174 119//119
f 195//195 170//170 180//180
f 196//196 187//187 141//141
f 176//176 191//191 181//181
f 186//186 149//149 197//197
f 149//149 155//155 197//197
f 190//190 152//152 198//198
f 177//177 191//191 176//176
f 130//130 145//145 148//148
f 166//166 151//151 201//201
f 142//142 131//131 203//203
f 200//200 167//167 132//132
f 163//163 194//194 173//173
f 171//171 182//182 193//193
f 164//164 135//135 183//183
f 168//168 205//205 155//155
f 180//180 181//181 202//202
f 193//193 130//130 171//171
f 185//185 175//175 147//147
f 196//196 141//141 188//188
f 145//145 203//203 131//131
f 195//195 180//180 202//202
f 191//191 204//204 181//181
f 179//179 169//169 206//206
f 199//199 200//200 132//132
f 201//201 151//151 190//190
f 138//138 159//159 210//210
f 205//205 197//197 155//155
f 188//188 189//189 196//196
f 172//172 208//208 134//134
f 212//212 183//183 154//154
f 177//177 213//213 191//191
f 192//192 179//179 214//214
f 145//145 130//130 209//209
f 194//194 170//170 195//195
f 132//132 140//140 199//199
f 216//216 187//187 196//196
f 207//207 144//144 217//217
f 202//202 181//181 219//219
f 211//211 201//201 190//190
f 207//207 189//189 144//144
f 210//210 154//154 138//138
f 220//220 173//173 194//194
f 209//209 130//130 193//193
f 204//204 215//215 181//181
f 191//191 213//213 204//204
f 174//174 184//184 218//218
f 142//142 217//217 144//144
f 208//208 168//168 134//134
f 199//199 140//140 221//221
f 209//209 222//222 145//145
f 169//169 167//167 206//206
f 150//150 198//198 152//152
f 214//214 179//179 206//206
f 172//172 166//166 208//208
f 198//198 211//211 190//190
f 159//159 175//175 227//227
f 194//194 195//195 226//226
f 219//219 181//181 215//215
f 167//167 200//200 230//230
f 226//226 220//220 194//194
f 177//177 192//192 231//231
f 202//202 229//229 195//195
f 204//204 213//213 224//224
f 204//204 224//224 215//215
f 212//212 154//154 210//210
f 184//184 232//232 218//218
f 140//140 187//187 228//228
f 207//207 225//225 189//189
f 189//189 233//233 196//196
f 220//220 223//223 173//173
f 183//183 212//212 236//236
f 228//228 221//221 140//140
f 231//231 213//213 177//177
f 206//206 235//235 214//214
f 225//225 233//233 189//189
f 184//184 164//164 236//236
f 211//211 240//240 201//201
f 236//236 164//164 183//183
f 174//174 218//218 185//185
f 224//224 218//218 232//232
f 214//214 231//231 192//192
f 222//222 203//203 145//145
f 213//213 218//218 224//224
f 233//233 216//216 196//196
f 242//242 226//226 195//195
f 202//202 219//219 229//229
f 224//224 232//232 215//215
f 229//229 242//242 195//195
f 243//243 230//230 200//200
f 244//244 186//186 197//197
f 184//184 238//238 232//232
f 239//239 211//211 198//198
f 241//241 197//197 205//205
f 184//184 234//234 238//238
f 203//203 217//217 142//142
f 246//246 225//225 207//207
f 198//198 245//245 239//239
f 244//244 150//150 186//186
f 235//235 206//206 230//230
f 213//213 231//231 247//247
f 168//168 208//208 237//237
f 236//236 234//234 184//184
f 193//193 182//182 249//249
f 175//175 185//185 250//250
f 248//248 198//198 150//150
f 198//198 248//248 245//245
f 159//159 252//252 210//210
f 223//223 182//182 173//173
f 216//216 228//228 187//187
f 236//236 212//212 245//245
f 231//231 214//214 253//253
f 230//230 206//206 167//167
f 248//248 150//150 244//244
f 205//205 168//168 254//254
f 218//218 213//213 247//247
f 234//234 236//236 245//245
f 215//215 232//232 238//238
f 245//245 256//256 239//239
f 168//168 237//237 254//254
f 208//208 166//166 258//258
f 245//245 212//212 256//256
f 240//240 211//211 239//239
f 256//256 212//212 210//210
f 257//257 237//237 208//208
f 193//193 249//249 209//209
f 223//223 249//249 182//182
f 218//218 259//259 185//185
f 219//219 215//215 248//248
f 199//199 243//243 200//200
f 261//261 247//247 231//231
f 235//235 253//253 214//214
f 227//227 175//175 250//250
f 262//262 222//222 209//209
f 230//230 243//243 260//260
f 255//255 220//220 226//226
f 240//240 239//239 264//264
f 248//248 234//234 245//245
f 215//215 234//234 248//248
f 238//238 234//234 215//215
f 166//166 201//201 266//266
f 203//203 222//222 267//267
f 207//207 217//217 268//268
f 265//265 229//229 219//219
f 226//226 242//242 255//255
f 265//265 248//248 244//244
f 251//251 267//267 222//222
f 219//219 248//248 265//265
f 262//262 251//251 222//222
f 250//250 269//269 227//227
f 249//249 262//262 209//209
f 244//244 197//197 270//270
f 270//270 197//197 241//241
f 218//218 247//247 259//259
f 271//271 261//261 231//231
f 264//264 201//201 240//240
f 258//258 257//257 208//208
f 229//229 265//265 242//242
f 241//241 205//205 272//272
f 205//205 254//254 273//273
f 263//263 235//235 230//230
f 253//253 271//271 231//231
f 250//250 185//185 274//274
f 166//166 266//266 275//275
f 275//275 258//258 166//166
f 244//244 270//270 265//265
f 266//266 201//201 264//264
f 253//253 235//235 263//263
f 254//254 237//237 257//257
f 272//272 205//205 273//273
f 203//203 268//268 217//217
f 256//256 277//277 239//239
f 227//227 252//252 159//159
f 276//276 270//270 241//241
f 278//278 259//259 247//247
f 223//223 220//220 249//249
f 279//279 256//256 210//210
f 239//239 277//277 264//264
f 185//185 259//259 274//274
f 257//257 281//281 254//254
f 268//268 282//282 207//207
f 278//278 283//283 259//259
f 282//282 246//246 207//207
f 284//284 221//221 228//228
f 276//276 285//285 270//270
f 249//249 220//220 280//280
f 256//256 287//287 277//277
f 283//283 274//274 259//259
f 243//243 199//199 289//289
f 253//253 263//263 286//286
f 276//276 241//241 272//272
f 265//265 290//290 242//242
f 261//261 278//278 247//247
f 220//220 255//255 291//291
f 252//252 227//227 292//292
f 228//228 216//216 288//288
f 279//279 287//287 256//256
f 266//266 264//264 277//277
f 254//254 281//281 273//273
f 255//255 242//242 294//294
f 199//199 221//221 295//295
f 293//293 267//267 251//251
f 295//295 289//289 199//199
f 289//289 260//260 243//243
f 260//260 263//263 230//230
f 253//253 296//296 271//271
f 290//290 265//265 270//270
f 280//280 220//220 291//291
f 242//242 290//290 294//294
f 227//227 269//269 297//297
f 210//210 252//252 279//279
f 292//292 227//227 297//297
f 288//288 216//216 298//298
f 255//255 294//294 291//291
f 228//228 288//288 284//284
f 270//270 285//285 299//299
f 233//233 298//298 216//216
f 300//300 285//285 276//276
f 268//268 203//203 267//267
f 246//246 282//282 302//302
f 277//277 287//287 266//266
f 301//301 262//262 249//249
f 284//284 295//295 221//221
f 272//272 300//300 276//276
f 274//274 283//283 304//304
f 280//280 301//301 249//249
f 305//305 233//233 225//225
f 282//282 268//268 303//303
f 299//299 290//290 270//270
f 275//275 266//266 287//287
f 307//307 279//279 252//252
f 303//303 268//268 267//267
f 300//300 299//299 285//285
f 250//250 274//274 306//306
f 304//304 306//306 274//274
f 309//309 301//301 280//280
f 292//292 307//307 252//252
f 273//273 281//281 311//311
f 310//310 278//278 261//261
f 258//258 313//313 257//257
f 306//306 269//269 250//250
f 261//261 271//271 310//310
f 302//302 282//282 303//303
f 258//258 275//275 314//314
f 280//280 291//291 309//309
f 293//293 308//308 267//267
f 305//305 298//298 233//233
f 296//296 253//253 286//286
f 284//284 315//315 295//295
f 313//313 258//258 312//312
f 225//225 246//246 302//302
f 296//296 310//310 271//271
f 297//297 269//269 316//316
f 263//263 260//260 289//289
f 314//314 312//312 258//258
f 289//289 286//286 263//263
f 317//317 272//272 273//273
f 309//309 291//291 318//318
f 275//275 287//287 314//314
f 305//305 225//225 302//302
f 311//311 317//317 273//273
f 279//279 307//307 319//319
f 307//307 292//292 320//320
f 296//296 286//286 321//321
f 286//286 289//289 324//324
f 297//297 320//320 292//292
f 303//303 267//267 308//308
f 262//262 301//301 326//326
f 291//291 294//294 318//318
f 314//314 287//287 279//279
f 319//319 314//314 279//279
f 251//251 262//262 326//326
f 288//288 298//298 327//327
f 284//284 288//288 327//327
f 313//313 311//311 257//257
f 301//301 309//309 330//330
f 325//325 306//306 304//304
f 326//326 293//293 251//251
f 283//283 278//278 310//310
f 284//284 327//327 315//315
f 257//257 311//311 281//281
f 294//294 290//290 331//331
f 331//331 318//318 294//294
f 310//310 296//296 322//322
f 309//309 318//318 330//330
f 303//303 308//308 334//334
f 324//324 321//321 286//286
f 298//298 305//305 332//332
f 323//323 300//300 272//272
f 321//321 322//322 296//296
f 327//327 298//298 332//332
f 297//297 316//316 335//335
f 329//329 324//324 289//289
f 328//328 302//302 303//303
f 301//301 330//330 326//326
f 316//316 269//269 306//306
f 290//290 299//299 331//331
f 329//329 289//289 295//295
f 331//331 336//336 318//318
f 334//334 328//328 303//303
f 337//337 305//305 302//302
f 320//320 319//319 307//307
f 335//335 320//320 297//297
f 324//324 338//338 321//321
f 304//304 283//283 340//340
f 339//339 323//323 272//272
f 327//327 332//332 341//341
f 310//310 340//340 283//283
f 330//330 318//318 336//336
f 342//342 336//336 331//331
f 317//317 339//339 272//272
f 315//315 329//329 295//295
f 325//325 316//316 306//306
f 328//328 334//334 343//343
f 300//300 331//331 299//299
f 311//311 313//313 345//345
f 322//322 344//344 310//310
f 340//340 325//325 304//304
f 346//346 308//308 293//293
f 321//321 344//344 322//322
f 293//293 326//326 347//347
f 300//300 350//350 331//331
f 332//332 305//305 351//351
f 317//317 311//311 352//352
f 353//353 312//312 314//314
f 346//346 334//334 308//308
f 330//330 336//336 354//354
f 350//350 342//342 331//331
f 314//314 319//319 353//353
f 316//316 325//325 355//355
f 338//338 344//344 321//321
f 319//319 320//320 348//348
f 338//338 324//324 357//357
f 312//312 345//345 313//313
f 335//335 348//348 320//320
f 349//349 357//357 324//324
f 300//300 323//323 358//358
f 319//319 348//348 353//353
f 344//344 340//340 310//310
f 315//315 327//327 341//341
f 345//345 352//352 311//311
f 312//312 353//353 345//345
f 355//355 335//335 316//316
f 302//302 333//333 337//337
f 334//334 359//359 343//343
f 334//334 346//346 359//359
f 339//339 358//358 323//323
f 361//361 351//351 305//305
f 352//352 339//339 317//317
f 338//338 360//360 344//344
f 329//329 315//315 362//362
f 347//347 346//346 293//293
f 356//356 349//349 324//324
f 341//341 362//362 315//315
f 329//329 363//363 324//324
f 330//330 354//354 365//365
f 341//341 332//332 351//351
f 366//366 340//340 344//344
f 365//365 326//326 330//330
f 336//336 342//342 364//364
f 345//345 367//367 352//352
f 349//349 356//356 369//369
f 364//364 354//354 336//336
f 363//363 356//356 324//324
f 343//343 370//370 328//328
f 346//346 347//347 371//371
f 360//360 338//338 357//357
f 300//300 358//358 350//350
f 372//372 347//347 326//326
f 339//339 352//352 373//373
f 337//337 361//361 305//305
f 325//325 340//340 376//376
f 335//335 355//355 368//368
f 364//364 374//374 354//354
f 365//365 372//372 326//326
f 358//358 339//339 378//378
f 364//364 379//379 374//374
f 353//353 348//348 375//375
f 355//355 325//325 376//376
f 360//360 357//357 377//377
f 377//377 357//357 349//349
f 367//367 373//373 352//352
f 360//360 366//366 344//344
f 363//363 329//329 362//362
f 368//368 348//348 335//335
f 370//370 343//343 380//380
f 374//374 365//365 354//354
f 359//359 380//380 343//343
f 342//342 350//350 382//382
f 375//375 367//367 345//345
f 302//302 328//328 370//370
f 350//350 358//358 378//378
f 345//345 353//353 375//375
f 373//373 378//378 339//339
f 348//348 368//368 385//385
f 347//347 372//372 371//371
f 366//366 376//376 340//340
f 371//371 359//359 346//346
f 360//360 377//377 381//381
f 382//382 364//364 342//342
f 377//377 349//349 386//386
f 367//367 375//375 388//388
f 365//365 374//374 387//387
f 379//379 377//377 374//374
f 385//385 375//375 348//348
f 386//386 374//374 377//377
f 370//370 383//383 302//302
f 355//355 376//376 391//391
f 366//366 360//360 384//384
f 391//391 368//368 355//355
f 364//364 390//390 379//379
f 386//386 393//393 374//374
f 356//356 363//363 369//369
f 382//382 395//395 364//364
f 395//395 390//390 364//364
f 378//378 382//382 350//350
f 372//372 365//365 387//387
f 384//384 360//360 381//381
f 392//392 377//377 379//379
f 390//390 392//392 379//379
f 385//385 394//394 375//375
f 397//397 395//395 382//382
f 375//375 394//394 388//388
f 382//382 378//378 397//397
f 337//337 333//333 399//399
f 386//386 349//349 396//396
f 398//398 391//391 376//376
f 376//376 366//366 398//398
f 381//381 377//377 392//392
f 363//363 362//362 400//400
f 371//371 372//372 387//387
f 393//393 387//387 374//374
f 383//383 333//333 302//302
f 386//386 396//396 393//393
f 399//399 333//333 389//389
f 385//385 368//368 391//391
f 384//384 398//398 366//366
f 371//371 401//401 359//359
f 402//402 400//400 362//362
f 403//403 406//406 405//405
f 385//385 391//391 404//404
f 408//408 378//378 373//373
f 367//367 408//408 373//373
f 381//381 392//392 409//409
f 398//398 384//384 407//407
f 388//388 408//408 367//367
f 406//406 403//403 410//410
f 399//399 361//361 337//337
f 407//407 384//384 381//381
f 412//412 391//391 398//398
f 411//411 403//403 413//413
f 404//404 391//391 412//412
f 395//395 392//392 390//390
f 394//394 385//385 404//404
f 405//405 414//414 403//403
f 410//410 403//403 411//411
f 414//414 413//413 403//403
f 415//415 406//406 410//410
f 412//412 398//398 407//407
f 394//394 416//416 388//388
f 407//407 381//381 409//409
f 380//380 359//359 418//418
f 395//395 417//417 392//392
f 378//378 408//408 397//397
f 419//419 370//370 380//380
f 397//397 417//417 395//395
f 414//414 405//405 421//421
f 359//359 401//401 418//418
f 410//410 411//411 420//420
f 416//416 408//408 388//388
f 417//417 409//409 392//392
f 383//383 389//389 333//333
f 408//408 417//417 397//397
f 363//363 400//400 422//422
f 369//369 363//363 422//422
f 396//396 349//349 369//369
f 423//423 417//417 408//408
f 394//394 404//404 416//416
f 416//416 423//423 408//408
f 387//387 401//401 371//371
f 426//426 405//405 406//406
f 427//427 412//412 407//407
f 404//404 412//412 427//427
f 404//404 427//427 416//416
f 411//411 424//424 420//420
f 417//417 423//423 409//409
f 405//405 426//426 421//421
f 418//418 419//419 380//380
f 416//416 427//427 423//423
f 427//427 407//407 409//409
f 426//426 406//406 415//415
f 423//423 427//427 409//409
f 351//351 428//428 341//341
f 411//411 413//413 424//424
f 362//362 341//341 428//428
f 429//429 414//414 421//421
f 396//396 422//422 393//393
f 400//400 402//402 431//431
f 410//410 420//420 430//430
f 396//396 369//369 422//422
f 424//424 413//413 435//435
f 434//434 433//433 430//430
f 420//420 437//437 430//430
f 413//413 414//414 435//435
f 433//433 438//438 430//430
f 425//425 389//389 383//383
f 432//432 361//361 399//399
f 418//418 401//401 439//439
f 351//351 361//361 432//432
f 433//433 399//399 389//389
f 436//436 435//435 414//414
f 434//434 430//430 437//437
f 399//399 433//433 434//434
f 414//414 429//429 436//436
f 383//383 370//370 419//419
f 425//425 433//433 389//389
f 401//401 387//387 443//443
f 393//393 443//443 387//387
f 442//442 434//434 441//441
f 446//446 434//434 437//437
f 383//383 419//419 425//425
f 444//444 410//410 430//430
f 437//437 420//420 445//445
f 415//415 410//410 444//444
f 351//351 432//432 447//447
f 443//443 439//439 401//401
f 440//440 429//429 421//421
f 421//421 426//426 440//440
f 441//441 434//434 446//446
f 448//448 438//438 433//433
f 430//430 438//438 444//444
f 433//433 425//425 448//448
f 431//431 422//422 400//400
f 426//426 415//415 440//440
f 447//447 428//428 351//351
f 446//446 450//450 441//441
f 424//424 445//445 420//420
f 443//443 393//393 452//452
f 451//451 444//444 438//438
f 428//428 402//402 362//362
f 438//438 448//448 451//451
f 441//441 450//450 442//442
f 415//415 449//449 440//440
f 429//429 440//440 453//453
f 445//445 446//446 437//437
f 432//432 399//399 454//454
f 444//444 449//449 415//415
f 446//446 445//445 450//450
f 450//450 456//456 442//442
f 455//455 451//451 448//448
f 445//445 424//424 435//435
f 451//451 457//457 444//444
f 434//434 442//442 399//399
f 418//418 439//439 419//419
f 459//459 458//458 435//435
f 436//436 459//459 435//435
f 457//457 449//449 444//444
f 445//445 435//435 458//458
f 440//440 449//449 453//453
f 439//439 448//448 419//419
f 393//393 422//422 452//452
f 450//450 445//445 462//462
f 456//456 450//450 461//461
f 454//454 399//399 442//442
f 448//448 425//425 419//419
f 460//460 422//422 431//431
f 462//462 461//461 450//450
f 455//455 457//457 451//451
f 445//445 458//458 462//462
f 429//429 453//453 464//464
f 439//439 463//463 448//448
f 464//464 436//436 429//429
f 465//465 455//455 448//448
f 468//468 457//457 455//455
f 466//466 439//439 467//467
f 449//449 457//457 469//469
f 447//447 432//432 470//470
f 456//456 454//454 442//442
f 448//448 463//463 465//465
f 462//462 458//458 471//471
f 443//443 467//467 439//439
f 455//455 465//465 468//468
f 449//449 469//469 453//453
f 422//422 460//460 452//452
f 463//463 439//439 466//466
f 454//454 456//456 432//432
f 453//453 469//469 472//472
f 456//456 470//470 432//432
f 402//402 428//428 474//474
f 456//456 461//461 473//473
f 471//471 473//473 462//462
f 452//452 467//467 443//443
f 464//464 459//459 436//436
f 463//463 466//466 475//475
f 402//402 460//460 431//431
f 457//457 468//468 476//476
f 462//462 473//473 461//461
f 428//428 447//447 477//477
f 458//458 459//459 471//471
f 469//469 457//457 476//476
f 472//472 464//464 453//453
f 474//474 460//460 402//402
f 471//471 459//459 478//478
f 477//477 474//474 428//428
f 475//475 465//465 463//463
f 464//464 478//478 459//459
f 473//473 471//471 479//479
f 473//473 481//481 456//456
f 476//476 468//468 465//465
f 480//480 475//475 466//466
f 452//452 460//460 482//482
f 456//456 483//483 470//470
f 467//467 452//452 482//482
f 469//469 476//476 484//484
f 484//484 472//472 469//469
f 478//478 479//479 471//471
f 484//484 464//464 472//472
f 483//483 456//456 481//481
f 477//477 447//447 470//470
f 485//485 482//482 460//460
f 467//467 480//480 466//466
f 476//476 465//465 486//486
f 477//477 487//487 474//474
f 460//460 474//474 485//485
f 486//486 484//484 476//476
f 479//479 489//489 473//473
f 470//470 490//490 477//477
f 482//482 488//488 467//467
f 478//478 489//489 479//479
f 483//483 490//490 470//470
f 475//475 486//486 465//465
f 487//487 477//477 490//490
f 481//481 473//473 489//489
f 492//492 486//486 475//475
f 485//485 474//474 487//487
f 480//480 467//467 488//488
f 488//488 482//482 493//493
f 482//482 485//485 493//493
f 494//494 475//475 480//480
f 484//484 486//486 495//495
f 475//475 494//494 492//492
f 491//491 489//489 478//478
f 490//490 483//483 496//496
f 464//464 491//491 478//478
f 464//464 484//484 495//495
f 490//490 493//493 487//487
f 498//498 494//494 480//480
f 485//485 487//487 493//493
f 489//489 499//499 481//481
f 486//486 492//492 495//495
f 496//496 497//497 490//490
f 498//498 480//480 488//488
f 497//497 493//493 490//490
f 464//464 495//495 491//491
f 488//488 493//493 500//500
f 488//488 500//500 498//498
f 489//489 491//491 501//501
f 501//501 491//491 496//496
f 491//491 497//497 496//496
f 500//500 493//493 497//497
f 483//483 481//481 499//499
f 491//491 495//495 500//500
f 500//500 497//497 491//491
f 499//499 489//489 501//501
f 494//494 495//495 492//492
f 502//502 500//500 495//495
f 483//483 501//501 496//496
f 495//495 494//494 502//502
f 498//498 500//500 502//502
f 502//502 494//494 498//498
f 499//499 501//501 483//483
